<?xml version="1.0" encoding="utf-8" standalone="no"?>
<!DOCTYPE svg PUBLIC "-//W3C//DTD SVG 1.1//EN"
  "http://www.w3.org/Graphics/SVG/1.1/DTD/svg11.dtd">
<svg xmlns:xlink="http://www.w3.org/1999/xlink" width="999.863906pt" height="426.584062pt" viewBox="0 0 999.863906 426.584062" xmlns="http://www.w3.org/2000/svg" version="1.1">
 <metadata>
  <rdf:RDF xmlns:dc="http://purl.org/dc/elements/1.1/" xmlns:cc="http://creativecommons.org/ns#" xmlns:rdf="http://www.w3.org/1999/02/22-rdf-syntax-ns#">
   <cc:Work>
    <dc:type rdf:resource="http://purl.org/dc/dcmitype/StillImage"/>
    <dc:format>image/svg+xml</dc:format>
   </cc:Work>
  </rdf:RDF>
 </metadata>
 <defs>
  <style type="text/css">*{stroke-linejoin: round; stroke-linecap: butt}</style>
 </defs>
 <g id="figure_1">
  <g id="patch_1">
   <path d="M -0 426.584062 
L 999.863906 426.584062 
L 999.863906 0 
L -0 0 
z
" style="fill: #ffffff"/>
  </g>
  <g id="axes_1">
   <g id="patch_2">
    <path d="M 48.403906 388.06 
L 489.383906 388.06 
L 489.383906 79.8 
L 48.403906 79.8 
z
" style="fill: #ffffff"/>
   </g>
   <g id="patch_3">
    <path d="M 68.448452 388.06 
L 123.74375 388.06 
L 123.74375 254.187086 
L 68.448452 254.187086 
z
" clip-path="url(#p126cea7a1d)" style="fill: #93c5fd; stroke: #ffffff; stroke-linejoin: miter"/>
   </g>
   <g id="patch_4">
    <path d="M 137.567574 388.06 
L 192.862872 388.06 
L 192.862872 94.479048 
L 137.567574 94.479048 
z
" clip-path="url(#p126cea7a1d)" style="fill: #93c5fd; stroke: #ffffff; stroke-linejoin: miter"/>
   </g>
   <g id="patch_5">
    <path d="M 206.686696 388.06 
L 261.981994 388.06 
L 261.981994 324.646514 
L 206.686696 324.646514 
z
" clip-path="url(#p126cea7a1d)" style="fill: #93c5fd; stroke: #ffffff; stroke-linejoin: miter"/>
   </g>
   <g id="patch_6">
    <path d="M 275.805818 388.06 
L 331.101116 388.06 
L 331.101116 355.178933 
L 275.805818 355.178933 
z
" clip-path="url(#p126cea7a1d)" style="fill: #93c5fd; stroke: #ffffff; stroke-linejoin: miter"/>
   </g>
   <g id="patch_7">
    <path d="M 344.924941 388.06 
L 400.220239 388.06 
L 400.220239 383.362705 
L 344.924941 383.362705 
z
" clip-path="url(#p126cea7a1d)" style="fill: #93c5fd; stroke: #ffffff; stroke-linejoin: miter"/>
   </g>
   <g id="patch_8">
    <path d="M 414.044063 388.06 
L 469.339361 388.06 
L 469.339361 378.66541 
L 414.044063 378.66541 
z
" clip-path="url(#p126cea7a1d)" style="fill: #93c5fd; stroke: #ffffff; stroke-linejoin: miter"/>
   </g>
   <g id="matplotlib.axis_1">
    <g id="xtick_1">
     <g id="line2d_1">
      <path d="M 96.096101 388.06 
L 96.096101 79.8 
" clip-path="url(#p126cea7a1d)" style="fill: none; stroke: #e2e8f0; stroke-width: 0.8; stroke-linecap: square"/>
     </g>
     <g id="line2d_2">
      <defs>
       <path id="m7bb9331b07" d="M 0 0 
L 0 3.5 
" style="stroke: #0f172a; stroke-width: 0.8"/>
      </defs>
      <g>
       <use xlink:href="#m7bb9331b07" x="96.096101" y="388.06" style="fill: #0f172a; stroke: #0f172a; stroke-width: 0.8"/>
      </g>
     </g>
     <g id="text_1">
      <!-- 5k–10k -->
      <g style="fill: #0f172a" transform="translate(77.370007 403.038359) scale(0.105 -0.105)">
       <defs>
        <path id="DejaVuSans-35" d="M 691 4666 
L 3169 4666 
L 3169 4134 
L 1269 4134 
L 1269 2991 
Q 1406 3038 1543 3061 
Q 1681 3084 1819 3084 
Q 2600 3084 3056 2656 
Q 3513 2228 3513 1497 
Q 3513 744 3044 326 
Q 2575 -91 1722 -91 
Q 1428 -91 1123 -41 
Q 819 9 494 109 
L 494 744 
Q 775 591 1075 516 
Q 1375 441 1709 441 
Q 2250 441 2565 725 
Q 2881 1009 2881 1497 
Q 2881 1984 2565 2268 
Q 2250 2553 1709 2553 
Q 1456 2553 1204 2497 
Q 953 2441 691 2322 
L 691 4666 
z
" transform="scale(0.015625)"/>
        <path id="DejaVuSans-6b" d="M 581 4863 
L 1159 4863 
L 1159 1991 
L 2875 3500 
L 3609 3500 
L 1753 1863 
L 3688 0 
L 2938 0 
L 1159 1709 
L 1159 0 
L 581 0 
L 581 4863 
z
" transform="scale(0.015625)"/>
        <path id="DejaVuSans-2013" d="M 313 1978 
L 2888 1978 
L 2888 1528 
L 313 1528 
L 313 1978 
z
" transform="scale(0.015625)"/>
        <path id="DejaVuSans-31" d="M 794 531 
L 1825 531 
L 1825 4091 
L 703 3866 
L 703 4441 
L 1819 4666 
L 2450 4666 
L 2450 531 
L 3481 531 
L 3481 0 
L 794 0 
L 794 531 
z
" transform="scale(0.015625)"/>
        <path id="DejaVuSans-30" d="M 2034 4250 
Q 1547 4250 1301 3770 
Q 1056 3291 1056 2328 
Q 1056 1369 1301 889 
Q 1547 409 2034 409 
Q 2525 409 2770 889 
Q 3016 1369 3016 2328 
Q 3016 3291 2770 3770 
Q 2525 4250 2034 4250 
z
M 2034 4750 
Q 2819 4750 3233 4129 
Q 3647 3509 3647 2328 
Q 3647 1150 3233 529 
Q 2819 -91 2034 -91 
Q 1250 -91 836 529 
Q 422 1150 422 2328 
Q 422 3509 836 4129 
Q 1250 4750 2034 4750 
z
" transform="scale(0.015625)"/>
       </defs>
       <use xlink:href="#DejaVuSans-35"/>
       <use xlink:href="#DejaVuSans-6b" transform="translate(63.623047 0)"/>
       <use xlink:href="#DejaVuSans-2013" transform="translate(121.533203 0)"/>
       <use xlink:href="#DejaVuSans-31" transform="translate(171.533203 0)"/>
       <use xlink:href="#DejaVuSans-30" transform="translate(235.15625 0)"/>
       <use xlink:href="#DejaVuSans-6b" transform="translate(298.779297 0)"/>
      </g>
     </g>
    </g>
    <g id="xtick_2">
     <g id="line2d_3">
      <path d="M 165.215223 388.06 
L 165.215223 79.8 
" clip-path="url(#p126cea7a1d)" style="fill: none; stroke: #e2e8f0; stroke-width: 0.8; stroke-linecap: square"/>
     </g>
     <g id="line2d_4">
      <g>
       <use xlink:href="#m7bb9331b07" x="165.215223" y="388.06" style="fill: #0f172a; stroke: #0f172a; stroke-width: 0.8"/>
      </g>
     </g>
     <g id="text_2">
      <!-- 10k–50k -->
      <g style="fill: #0f172a" transform="translate(143.148817 403.038359) scale(0.105 -0.105)">
       <use xlink:href="#DejaVuSans-31"/>
       <use xlink:href="#DejaVuSans-30" transform="translate(63.623047 0)"/>
       <use xlink:href="#DejaVuSans-6b" transform="translate(127.246094 0)"/>
       <use xlink:href="#DejaVuSans-2013" transform="translate(185.15625 0)"/>
       <use xlink:href="#DejaVuSans-35" transform="translate(235.15625 0)"/>
       <use xlink:href="#DejaVuSans-30" transform="translate(298.779297 0)"/>
       <use xlink:href="#DejaVuSans-6b" transform="translate(362.402344 0)"/>
      </g>
     </g>
    </g>
    <g id="xtick_3">
     <g id="line2d_5">
      <path d="M 234.334345 388.06 
L 234.334345 79.8 
" clip-path="url(#p126cea7a1d)" style="fill: none; stroke: #e2e8f0; stroke-width: 0.8; stroke-linecap: square"/>
     </g>
     <g id="line2d_6">
      <g>
       <use xlink:href="#m7bb9331b07" x="234.334345" y="388.06" style="fill: #0f172a; stroke: #0f172a; stroke-width: 0.8"/>
      </g>
     </g>
     <g id="text_3">
      <!-- 50k–100k -->
      <g style="fill: #0f172a" transform="translate(208.927626 403.038359) scale(0.105 -0.105)">
       <use xlink:href="#DejaVuSans-35"/>
       <use xlink:href="#DejaVuSans-30" transform="translate(63.623047 0)"/>
       <use xlink:href="#DejaVuSans-6b" transform="translate(127.246094 0)"/>
       <use xlink:href="#DejaVuSans-2013" transform="translate(185.15625 0)"/>
       <use xlink:href="#DejaVuSans-31" transform="translate(235.15625 0)"/>
       <use xlink:href="#DejaVuSans-30" transform="translate(298.779297 0)"/>
       <use xlink:href="#DejaVuSans-30" transform="translate(362.402344 0)"/>
       <use xlink:href="#DejaVuSans-6b" transform="translate(426.025391 0)"/>
      </g>
     </g>
    </g>
    <g id="xtick_4">
     <g id="line2d_7">
      <path d="M 303.453467 388.06 
L 303.453467 79.8 
" clip-path="url(#p126cea7a1d)" style="fill: none; stroke: #e2e8f0; stroke-width: 0.8; stroke-linecap: square"/>
     </g>
     <g id="line2d_8">
      <g>
       <use xlink:href="#m7bb9331b07" x="303.453467" y="388.06" style="fill: #0f172a; stroke: #0f172a; stroke-width: 0.8"/>
      </g>
     </g>
     <g id="text_4">
      <!-- 100k–500k -->
      <g style="fill: #0f172a" transform="translate(274.706436 403.038359) scale(0.105 -0.105)">
       <use xlink:href="#DejaVuSans-31"/>
       <use xlink:href="#DejaVuSans-30" transform="translate(63.623047 0)"/>
       <use xlink:href="#DejaVuSans-30" transform="translate(127.246094 0)"/>
       <use xlink:href="#DejaVuSans-6b" transform="translate(190.869141 0)"/>
       <use xlink:href="#DejaVuSans-2013" transform="translate(248.779297 0)"/>
       <use xlink:href="#DejaVuSans-35" transform="translate(298.779297 0)"/>
       <use xlink:href="#DejaVuSans-30" transform="translate(362.402344 0)"/>
       <use xlink:href="#DejaVuSans-30" transform="translate(426.025391 0)"/>
       <use xlink:href="#DejaVuSans-6b" transform="translate(489.648438 0)"/>
      </g>
     </g>
    </g>
    <g id="xtick_5">
     <g id="line2d_9">
      <path d="M 372.57259 388.06 
L 372.57259 79.8 
" clip-path="url(#p126cea7a1d)" style="fill: none; stroke: #e2e8f0; stroke-width: 0.8; stroke-linecap: square"/>
     </g>
     <g id="line2d_10">
      <g>
       <use xlink:href="#m7bb9331b07" x="372.57259" y="388.06" style="fill: #0f172a; stroke: #0f172a; stroke-width: 0.8"/>
      </g>
     </g>
     <g id="text_5">
      <!-- 500k–1M -->
      <g style="fill: #0f172a" transform="translate(349.016496 403.038359) scale(0.105 -0.105)">
       <defs>
        <path id="DejaVuSans-4d" d="M 628 4666 
L 1569 4666 
L 2759 1491 
L 3956 4666 
L 4897 4666 
L 4897 0 
L 4281 0 
L 4281 4097 
L 3078 897 
L 2444 897 
L 1241 4097 
L 1241 0 
L 628 0 
L 628 4666 
z
" transform="scale(0.015625)"/>
       </defs>
       <use xlink:href="#DejaVuSans-35"/>
       <use xlink:href="#DejaVuSans-30" transform="translate(63.623047 0)"/>
       <use xlink:href="#DejaVuSans-30" transform="translate(127.246094 0)"/>
       <use xlink:href="#DejaVuSans-6b" transform="translate(190.869141 0)"/>
       <use xlink:href="#DejaVuSans-2013" transform="translate(248.779297 0)"/>
       <use xlink:href="#DejaVuSans-31" transform="translate(298.779297 0)"/>
       <use xlink:href="#DejaVuSans-4d" transform="translate(362.402344 0)"/>
      </g>
     </g>
    </g>
    <g id="xtick_6">
     <g id="line2d_11">
      <path d="M 441.691712 388.06 
L 441.691712 79.8 
" clip-path="url(#p126cea7a1d)" style="fill: none; stroke: #e2e8f0; stroke-width: 0.8; stroke-linecap: square"/>
     </g>
     <g id="line2d_12">
      <g>
       <use xlink:href="#m7bb9331b07" x="441.691712" y="388.06" style="fill: #0f172a; stroke: #0f172a; stroke-width: 0.8"/>
      </g>
     </g>
     <g id="text_6">
      <!-- 1M+ -->
      <g style="fill: #0f172a" transform="translate(429.422298 403.038359) scale(0.105 -0.105)">
       <defs>
        <path id="DejaVuSans-2b" d="M 2944 4013 
L 2944 2272 
L 4684 2272 
L 4684 1741 
L 2944 1741 
L 2944 0 
L 2419 0 
L 2419 1741 
L 678 1741 
L 678 2272 
L 2419 2272 
L 2419 4013 
L 2944 4013 
z
" transform="scale(0.015625)"/>
       </defs>
       <use xlink:href="#DejaVuSans-31"/>
       <use xlink:href="#DejaVuSans-4d" transform="translate(63.623047 0)"/>
       <use xlink:href="#DejaVuSans-2b" transform="translate(149.902344 0)"/>
      </g>
     </g>
    </g>
   </g>
   <g id="matplotlib.axis_2">
    <g id="ytick_1">
     <g id="line2d_13">
      <path d="M 48.403906 388.06 
L 489.383906 388.06 
" clip-path="url(#p126cea7a1d)" style="fill: none; stroke: #e2e8f0; stroke-width: 0.8; stroke-linecap: square"/>
     </g>
     <g id="line2d_14">
      <defs>
       <path id="md8d1fdb13c" d="M 0 0 
L -3.5 0 
" style="stroke: #0f172a; stroke-width: 0.8"/>
      </defs>
      <g>
       <use xlink:href="#md8d1fdb13c" x="48.403906" y="388.06" style="fill: #0f172a; stroke: #0f172a; stroke-width: 0.8"/>
      </g>
     </g>
     <g id="text_7">
      <!-- 0 -->
      <g style="fill: #0f172a" transform="translate(34.723281 392.04918) scale(0.105 -0.105)">
       <use xlink:href="#DejaVuSans-30"/>
      </g>
     </g>
    </g>
    <g id="ytick_2">
     <g id="line2d_15">
      <path d="M 48.403906 341.087048 
L 489.383906 341.087048 
" clip-path="url(#p126cea7a1d)" style="fill: none; stroke: #e2e8f0; stroke-width: 0.8; stroke-linecap: square"/>
     </g>
     <g id="line2d_16">
      <g>
       <use xlink:href="#md8d1fdb13c" x="48.403906" y="341.087048" style="fill: #0f172a; stroke: #0f172a; stroke-width: 0.8"/>
      </g>
     </g>
     <g id="text_8">
      <!-- 20 -->
      <g style="fill: #0f172a" transform="translate(28.042656 345.076227) scale(0.105 -0.105)">
       <defs>
        <path id="DejaVuSans-32" d="M 1228 531 
L 3431 531 
L 3431 0 
L 469 0 
L 469 531 
Q 828 903 1448 1529 
Q 2069 2156 2228 2338 
Q 2531 2678 2651 2914 
Q 2772 3150 2772 3378 
Q 2772 3750 2511 3984 
Q 2250 4219 1831 4219 
Q 1534 4219 1204 4116 
Q 875 4013 500 3803 
L 500 4441 
Q 881 4594 1212 4672 
Q 1544 4750 1819 4750 
Q 2544 4750 2975 4387 
Q 3406 4025 3406 3419 
Q 3406 3131 3298 2873 
Q 3191 2616 2906 2266 
Q 2828 2175 2409 1742 
Q 1991 1309 1228 531 
z
" transform="scale(0.015625)"/>
       </defs>
       <use xlink:href="#DejaVuSans-32"/>
       <use xlink:href="#DejaVuSans-30" transform="translate(63.623047 0)"/>
      </g>
     </g>
    </g>
    <g id="ytick_3">
     <g id="line2d_17">
      <path d="M 48.403906 294.114095 
L 489.383906 294.114095 
" clip-path="url(#p126cea7a1d)" style="fill: none; stroke: #e2e8f0; stroke-width: 0.8; stroke-linecap: square"/>
     </g>
     <g id="line2d_18">
      <g>
       <use xlink:href="#md8d1fdb13c" x="48.403906" y="294.114095" style="fill: #0f172a; stroke: #0f172a; stroke-width: 0.8"/>
      </g>
     </g>
     <g id="text_9">
      <!-- 40 -->
      <g style="fill: #0f172a" transform="translate(28.042656 298.103275) scale(0.105 -0.105)">
       <defs>
        <path id="DejaVuSans-34" d="M 2419 4116 
L 825 1625 
L 2419 1625 
L 2419 4116 
z
M 2253 4666 
L 3047 4666 
L 3047 1625 
L 3713 1625 
L 3713 1100 
L 3047 1100 
L 3047 0 
L 2419 0 
L 2419 1100 
L 313 1100 
L 313 1709 
L 2253 4666 
z
" transform="scale(0.015625)"/>
       </defs>
       <use xlink:href="#DejaVuSans-34"/>
       <use xlink:href="#DejaVuSans-30" transform="translate(63.623047 0)"/>
      </g>
     </g>
    </g>
    <g id="ytick_4">
     <g id="line2d_19">
      <path d="M 48.403906 247.141143 
L 489.383906 247.141143 
" clip-path="url(#p126cea7a1d)" style="fill: none; stroke: #e2e8f0; stroke-width: 0.8; stroke-linecap: square"/>
     </g>
     <g id="line2d_20">
      <g>
       <use xlink:href="#md8d1fdb13c" x="48.403906" y="247.141143" style="fill: #0f172a; stroke: #0f172a; stroke-width: 0.8"/>
      </g>
     </g>
     <g id="text_10">
      <!-- 60 -->
      <g style="fill: #0f172a" transform="translate(28.042656 251.130323) scale(0.105 -0.105)">
       <defs>
        <path id="DejaVuSans-36" d="M 2113 2584 
Q 1688 2584 1439 2293 
Q 1191 2003 1191 1497 
Q 1191 994 1439 701 
Q 1688 409 2113 409 
Q 2538 409 2786 701 
Q 3034 994 3034 1497 
Q 3034 2003 2786 2293 
Q 2538 2584 2113 2584 
z
M 3366 4563 
L 3366 3988 
Q 3128 4100 2886 4159 
Q 2644 4219 2406 4219 
Q 1781 4219 1451 3797 
Q 1122 3375 1075 2522 
Q 1259 2794 1537 2939 
Q 1816 3084 2150 3084 
Q 2853 3084 3261 2657 
Q 3669 2231 3669 1497 
Q 3669 778 3244 343 
Q 2819 -91 2113 -91 
Q 1303 -91 875 529 
Q 447 1150 447 2328 
Q 447 3434 972 4092 
Q 1497 4750 2381 4750 
Q 2619 4750 2861 4703 
Q 3103 4656 3366 4563 
z
" transform="scale(0.015625)"/>
       </defs>
       <use xlink:href="#DejaVuSans-36"/>
       <use xlink:href="#DejaVuSans-30" transform="translate(63.623047 0)"/>
      </g>
     </g>
    </g>
    <g id="ytick_5">
     <g id="line2d_21">
      <path d="M 48.403906 200.16819 
L 489.383906 200.16819 
" clip-path="url(#p126cea7a1d)" style="fill: none; stroke: #e2e8f0; stroke-width: 0.8; stroke-linecap: square"/>
     </g>
     <g id="line2d_22">
      <g>
       <use xlink:href="#md8d1fdb13c" x="48.403906" y="200.16819" style="fill: #0f172a; stroke: #0f172a; stroke-width: 0.8"/>
      </g>
     </g>
     <g id="text_11">
      <!-- 80 -->
      <g style="fill: #0f172a" transform="translate(28.042656 204.15737) scale(0.105 -0.105)">
       <defs>
        <path id="DejaVuSans-38" d="M 2034 2216 
Q 1584 2216 1326 1975 
Q 1069 1734 1069 1313 
Q 1069 891 1326 650 
Q 1584 409 2034 409 
Q 2484 409 2743 651 
Q 3003 894 3003 1313 
Q 3003 1734 2745 1975 
Q 2488 2216 2034 2216 
z
M 1403 2484 
Q 997 2584 770 2862 
Q 544 3141 544 3541 
Q 544 4100 942 4425 
Q 1341 4750 2034 4750 
Q 2731 4750 3128 4425 
Q 3525 4100 3525 3541 
Q 3525 3141 3298 2862 
Q 3072 2584 2669 2484 
Q 3125 2378 3379 2068 
Q 3634 1759 3634 1313 
Q 3634 634 3220 271 
Q 2806 -91 2034 -91 
Q 1263 -91 848 271 
Q 434 634 434 1313 
Q 434 1759 690 2068 
Q 947 2378 1403 2484 
z
M 1172 3481 
Q 1172 3119 1398 2916 
Q 1625 2713 2034 2713 
Q 2441 2713 2670 2916 
Q 2900 3119 2900 3481 
Q 2900 3844 2670 4047 
Q 2441 4250 2034 4250 
Q 1625 4250 1398 4047 
Q 1172 3844 1172 3481 
z
" transform="scale(0.015625)"/>
       </defs>
       <use xlink:href="#DejaVuSans-38"/>
       <use xlink:href="#DejaVuSans-30" transform="translate(63.623047 0)"/>
      </g>
     </g>
    </g>
    <g id="ytick_6">
     <g id="line2d_23">
      <path d="M 48.403906 153.195238 
L 489.383906 153.195238 
" clip-path="url(#p126cea7a1d)" style="fill: none; stroke: #e2e8f0; stroke-width: 0.8; stroke-linecap: square"/>
     </g>
     <g id="line2d_24">
      <g>
       <use xlink:href="#md8d1fdb13c" x="48.403906" y="153.195238" style="fill: #0f172a; stroke: #0f172a; stroke-width: 0.8"/>
      </g>
     </g>
     <g id="text_12">
      <!-- 100 -->
      <g style="fill: #0f172a" transform="translate(21.362031 157.184418) scale(0.105 -0.105)">
       <use xlink:href="#DejaVuSans-31"/>
       <use xlink:href="#DejaVuSans-30" transform="translate(63.623047 0)"/>
       <use xlink:href="#DejaVuSans-30" transform="translate(127.246094 0)"/>
      </g>
     </g>
    </g>
    <g id="ytick_7">
     <g id="line2d_25">
      <path d="M 48.403906 106.222286 
L 489.383906 106.222286 
" clip-path="url(#p126cea7a1d)" style="fill: none; stroke: #e2e8f0; stroke-width: 0.8; stroke-linecap: square"/>
     </g>
     <g id="line2d_26">
      <g>
       <use xlink:href="#md8d1fdb13c" x="48.403906" y="106.222286" style="fill: #0f172a; stroke: #0f172a; stroke-width: 0.8"/>
      </g>
     </g>
     <g id="text_13">
      <!-- 120 -->
      <g style="fill: #0f172a" transform="translate(21.362031 110.211465) scale(0.105 -0.105)">
       <use xlink:href="#DejaVuSans-31"/>
       <use xlink:href="#DejaVuSans-32" transform="translate(63.623047 0)"/>
       <use xlink:href="#DejaVuSans-30" transform="translate(127.246094 0)"/>
      </g>
     </g>
    </g>
    <g id="text_14">
     <!-- Startup count -->
     <g style="fill: #0f172a" transform="translate(15.178359 269.894961) rotate(-90) scale(0.105 -0.105)">
      <defs>
       <path id="DejaVuSans-53" d="M 3425 4513 
L 3425 3897 
Q 3066 4069 2747 4153 
Q 2428 4238 2131 4238 
Q 1616 4238 1336 4038 
Q 1056 3838 1056 3469 
Q 1056 3159 1242 3001 
Q 1428 2844 1947 2747 
L 2328 2669 
Q 3034 2534 3370 2195 
Q 3706 1856 3706 1288 
Q 3706 609 3251 259 
Q 2797 -91 1919 -91 
Q 1588 -91 1214 -16 
Q 841 59 441 206 
L 441 856 
Q 825 641 1194 531 
Q 1563 422 1919 422 
Q 2459 422 2753 634 
Q 3047 847 3047 1241 
Q 3047 1584 2836 1778 
Q 2625 1972 2144 2069 
L 1759 2144 
Q 1053 2284 737 2584 
Q 422 2884 422 3419 
Q 422 4038 858 4394 
Q 1294 4750 2059 4750 
Q 2388 4750 2728 4690 
Q 3069 4631 3425 4513 
z
" transform="scale(0.015625)"/>
       <path id="DejaVuSans-74" d="M 1172 4494 
L 1172 3500 
L 2356 3500 
L 2356 3053 
L 1172 3053 
L 1172 1153 
Q 1172 725 1289 603 
Q 1406 481 1766 481 
L 2356 481 
L 2356 0 
L 1766 0 
Q 1100 0 847 248 
Q 594 497 594 1153 
L 594 3053 
L 172 3053 
L 172 3500 
L 594 3500 
L 594 4494 
L 1172 4494 
z
" transform="scale(0.015625)"/>
       <path id="DejaVuSans-61" d="M 2194 1759 
Q 1497 1759 1228 1600 
Q 959 1441 959 1056 
Q 959 750 1161 570 
Q 1363 391 1709 391 
Q 2188 391 2477 730 
Q 2766 1069 2766 1631 
L 2766 1759 
L 2194 1759 
z
M 3341 1997 
L 3341 0 
L 2766 0 
L 2766 531 
Q 2569 213 2275 61 
Q 1981 -91 1556 -91 
Q 1019 -91 701 211 
Q 384 513 384 1019 
Q 384 1609 779 1909 
Q 1175 2209 1959 2209 
L 2766 2209 
L 2766 2266 
Q 2766 2663 2505 2880 
Q 2244 3097 1772 3097 
Q 1472 3097 1187 3025 
Q 903 2953 641 2809 
L 641 3341 
Q 956 3463 1253 3523 
Q 1550 3584 1831 3584 
Q 2591 3584 2966 3190 
Q 3341 2797 3341 1997 
z
" transform="scale(0.015625)"/>
       <path id="DejaVuSans-72" d="M 2631 2963 
Q 2534 3019 2420 3045 
Q 2306 3072 2169 3072 
Q 1681 3072 1420 2755 
Q 1159 2438 1159 1844 
L 1159 0 
L 581 0 
L 581 3500 
L 1159 3500 
L 1159 2956 
Q 1341 3275 1631 3429 
Q 1922 3584 2338 3584 
Q 2397 3584 2469 3576 
Q 2541 3569 2628 3553 
L 2631 2963 
z
" transform="scale(0.015625)"/>
       <path id="DejaVuSans-75" d="M 544 1381 
L 544 3500 
L 1119 3500 
L 1119 1403 
Q 1119 906 1312 657 
Q 1506 409 1894 409 
Q 2359 409 2629 706 
Q 2900 1003 2900 1516 
L 2900 3500 
L 3475 3500 
L 3475 0 
L 2900 0 
L 2900 538 
Q 2691 219 2414 64 
Q 2138 -91 1772 -91 
Q 1169 -91 856 284 
Q 544 659 544 1381 
z
M 1991 3584 
L 1991 3584 
z
" transform="scale(0.015625)"/>
       <path id="DejaVuSans-70" d="M 1159 525 
L 1159 -1331 
L 581 -1331 
L 581 3500 
L 1159 3500 
L 1159 2969 
Q 1341 3281 1617 3432 
Q 1894 3584 2278 3584 
Q 2916 3584 3314 3078 
Q 3713 2572 3713 1747 
Q 3713 922 3314 415 
Q 2916 -91 2278 -91 
Q 1894 -91 1617 61 
Q 1341 213 1159 525 
z
M 3116 1747 
Q 3116 2381 2855 2742 
Q 2594 3103 2138 3103 
Q 1681 3103 1420 2742 
Q 1159 2381 1159 1747 
Q 1159 1113 1420 752 
Q 1681 391 2138 391 
Q 2594 391 2855 752 
Q 3116 1113 3116 1747 
z
" transform="scale(0.015625)"/>
       <path id="DejaVuSans-20" transform="scale(0.015625)"/>
       <path id="DejaVuSans-63" d="M 3122 3366 
L 3122 2828 
Q 2878 2963 2633 3030 
Q 2388 3097 2138 3097 
Q 1578 3097 1268 2742 
Q 959 2388 959 1747 
Q 959 1106 1268 751 
Q 1578 397 2138 397 
Q 2388 397 2633 464 
Q 2878 531 3122 666 
L 3122 134 
Q 2881 22 2623 -34 
Q 2366 -91 2075 -91 
Q 1284 -91 818 406 
Q 353 903 353 1747 
Q 353 2603 823 3093 
Q 1294 3584 2113 3584 
Q 2378 3584 2631 3529 
Q 2884 3475 3122 3366 
z
" transform="scale(0.015625)"/>
       <path id="DejaVuSans-6f" d="M 1959 3097 
Q 1497 3097 1228 2736 
Q 959 2375 959 1747 
Q 959 1119 1226 758 
Q 1494 397 1959 397 
Q 2419 397 2687 759 
Q 2956 1122 2956 1747 
Q 2956 2369 2687 2733 
Q 2419 3097 1959 3097 
z
M 1959 3584 
Q 2709 3584 3137 3096 
Q 3566 2609 3566 1747 
Q 3566 888 3137 398 
Q 2709 -91 1959 -91 
Q 1206 -91 779 398 
Q 353 888 353 1747 
Q 353 2609 779 3096 
Q 1206 3584 1959 3584 
z
" transform="scale(0.015625)"/>
       <path id="DejaVuSans-6e" d="M 3513 2113 
L 3513 0 
L 2938 0 
L 2938 2094 
Q 2938 2591 2744 2837 
Q 2550 3084 2163 3084 
Q 1697 3084 1428 2787 
Q 1159 2491 1159 1978 
L 1159 0 
L 581 0 
L 581 3500 
L 1159 3500 
L 1159 2956 
Q 1366 3272 1645 3428 
Q 1925 3584 2291 3584 
Q 2894 3584 3203 3211 
Q 3513 2838 3513 2113 
z
" transform="scale(0.015625)"/>
      </defs>
      <use xlink:href="#DejaVuSans-53"/>
      <use xlink:href="#DejaVuSans-74" transform="translate(63.476562 0)"/>
      <use xlink:href="#DejaVuSans-61" transform="translate(102.685547 0)"/>
      <use xlink:href="#DejaVuSans-72" transform="translate(163.964844 0)"/>
      <use xlink:href="#DejaVuSans-74" transform="translate(205.078125 0)"/>
      <use xlink:href="#DejaVuSans-75" transform="translate(244.287109 0)"/>
      <use xlink:href="#DejaVuSans-70" transform="translate(307.666016 0)"/>
      <use xlink:href="#DejaVuSans-20" transform="translate(371.142578 0)"/>
      <use xlink:href="#DejaVuSans-63" transform="translate(402.929688 0)"/>
      <use xlink:href="#DejaVuSans-6f" transform="translate(457.910156 0)"/>
      <use xlink:href="#DejaVuSans-75" transform="translate(519.091797 0)"/>
      <use xlink:href="#DejaVuSans-6e" transform="translate(582.470703 0)"/>
      <use xlink:href="#DejaVuSans-74" transform="translate(645.849609 0)"/>
     </g>
    </g>
   </g>
   <g id="patch_9">
    <path d="M 48.403906 388.06 
L 48.403906 79.8 
" style="fill: none; stroke: #cbd5e1; stroke-width: 0.8; stroke-linejoin: miter; stroke-linecap: square"/>
   </g>
   <g id="patch_10">
    <path d="M 48.403906 388.06 
L 489.383906 388.06 
" style="fill: none; stroke: #cbd5e1; stroke-width: 0.8; stroke-linejoin: miter; stroke-linecap: square"/>
   </g>
   <g id="text_15">
    <!-- 57 startups -->
    <g style="fill: #0f172a" transform="translate(70.977601 235.456943) scale(0.088 -0.088)">
     <defs>
      <path id="DejaVuSans-37" d="M 525 4666 
L 3525 4666 
L 3525 4397 
L 1831 0 
L 1172 0 
L 2766 4134 
L 525 4134 
L 525 4666 
z
" transform="scale(0.015625)"/>
      <path id="DejaVuSans-73" d="M 2834 3397 
L 2834 2853 
Q 2591 2978 2328 3040 
Q 2066 3103 1784 3103 
Q 1356 3103 1142 2972 
Q 928 2841 928 2578 
Q 928 2378 1081 2264 
Q 1234 2150 1697 2047 
L 1894 2003 
Q 2506 1872 2764 1633 
Q 3022 1394 3022 966 
Q 3022 478 2636 193 
Q 2250 -91 1575 -91 
Q 1294 -91 989 -36 
Q 684 19 347 128 
L 347 722 
Q 666 556 975 473 
Q 1284 391 1588 391 
Q 1994 391 2212 530 
Q 2431 669 2431 922 
Q 2431 1156 2273 1281 
Q 2116 1406 1581 1522 
L 1381 1569 
Q 847 1681 609 1914 
Q 372 2147 372 2553 
Q 372 3047 722 3315 
Q 1072 3584 1716 3584 
Q 2034 3584 2315 3537 
Q 2597 3491 2834 3397 
z
" transform="scale(0.015625)"/>
     </defs>
     <use xlink:href="#DejaVuSans-35"/>
     <use xlink:href="#DejaVuSans-37" transform="translate(63.623047 0)"/>
     <use xlink:href="#DejaVuSans-20" transform="translate(127.246094 0)"/>
     <use xlink:href="#DejaVuSans-73" transform="translate(159.033203 0)"/>
     <use xlink:href="#DejaVuSans-74" transform="translate(211.132812 0)"/>
     <use xlink:href="#DejaVuSans-61" transform="translate(250.341797 0)"/>
     <use xlink:href="#DejaVuSans-72" transform="translate(311.621094 0)"/>
     <use xlink:href="#DejaVuSans-74" transform="translate(352.734375 0)"/>
     <use xlink:href="#DejaVuSans-75" transform="translate(391.943359 0)"/>
     <use xlink:href="#DejaVuSans-70" transform="translate(455.322266 0)"/>
     <use xlink:href="#DejaVuSans-73" transform="translate(518.798828 0)"/>
    </g>
    <!-- 1.7% revenue -->
    <g style="fill: #0f172a" transform="translate(65.506476 245.311018) scale(0.088 -0.088)">
     <defs>
      <path id="DejaVuSans-2e" d="M 684 794 
L 1344 794 
L 1344 0 
L 684 0 
L 684 794 
z
" transform="scale(0.015625)"/>
      <path id="DejaVuSans-25" d="M 4653 2053 
Q 4381 2053 4226 1822 
Q 4072 1591 4072 1178 
Q 4072 772 4226 539 
Q 4381 306 4653 306 
Q 4919 306 5073 539 
Q 5228 772 5228 1178 
Q 5228 1588 5073 1820 
Q 4919 2053 4653 2053 
z
M 4653 2450 
Q 5147 2450 5437 2106 
Q 5728 1763 5728 1178 
Q 5728 594 5436 251 
Q 5144 -91 4653 -91 
Q 4153 -91 3862 251 
Q 3572 594 3572 1178 
Q 3572 1766 3864 2108 
Q 4156 2450 4653 2450 
z
M 1428 4353 
Q 1159 4353 1004 4120 
Q 850 3888 850 3481 
Q 850 3069 1003 2837 
Q 1156 2606 1428 2606 
Q 1700 2606 1854 2837 
Q 2009 3069 2009 3481 
Q 2009 3884 1853 4118 
Q 1697 4353 1428 4353 
z
M 4250 4750 
L 4750 4750 
L 1831 -91 
L 1331 -91 
L 4250 4750 
z
M 1428 4750 
Q 1922 4750 2215 4408 
Q 2509 4066 2509 3481 
Q 2509 2891 2217 2550 
Q 1925 2209 1428 2209 
Q 931 2209 642 2551 
Q 353 2894 353 3481 
Q 353 4063 643 4406 
Q 934 4750 1428 4750 
z
" transform="scale(0.015625)"/>
      <path id="DejaVuSans-65" d="M 3597 1894 
L 3597 1613 
L 953 1613 
Q 991 1019 1311 708 
Q 1631 397 2203 397 
Q 2534 397 2845 478 
Q 3156 559 3463 722 
L 3463 178 
Q 3153 47 2828 -22 
Q 2503 -91 2169 -91 
Q 1331 -91 842 396 
Q 353 884 353 1716 
Q 353 2575 817 3079 
Q 1281 3584 2069 3584 
Q 2775 3584 3186 3129 
Q 3597 2675 3597 1894 
z
M 3022 2063 
Q 3016 2534 2758 2815 
Q 2500 3097 2075 3097 
Q 1594 3097 1305 2825 
Q 1016 2553 972 2059 
L 3022 2063 
z
" transform="scale(0.015625)"/>
      <path id="DejaVuSans-76" d="M 191 3500 
L 800 3500 
L 1894 563 
L 2988 3500 
L 3597 3500 
L 2284 0 
L 1503 0 
L 191 3500 
z
" transform="scale(0.015625)"/>
     </defs>
     <use xlink:href="#DejaVuSans-31"/>
     <use xlink:href="#DejaVuSans-2e" transform="translate(63.623047 0)"/>
     <use xlink:href="#DejaVuSans-37" transform="translate(95.410156 0)"/>
     <use xlink:href="#DejaVuSans-25" transform="translate(159.033203 0)"/>
     <use xlink:href="#DejaVuSans-20" transform="translate(254.052734 0)"/>
     <use xlink:href="#DejaVuSans-72" transform="translate(285.839844 0)"/>
     <use xlink:href="#DejaVuSans-65" transform="translate(324.703125 0)"/>
     <use xlink:href="#DejaVuSans-76" transform="translate(386.226562 0)"/>
     <use xlink:href="#DejaVuSans-65" transform="translate(445.40625 0)"/>
     <use xlink:href="#DejaVuSans-6e" transform="translate(506.929688 0)"/>
     <use xlink:href="#DejaVuSans-75" transform="translate(570.308594 0)"/>
     <use xlink:href="#DejaVuSans-65" transform="translate(633.6875 0)"/>
    </g>
   </g>
   <g id="text_16">
    <!-- 125 startups -->
    <g style="fill: #0f172a" transform="translate(137.297223 75.748905) scale(0.088 -0.088)">
     <use xlink:href="#DejaVuSans-31"/>
     <use xlink:href="#DejaVuSans-32" transform="translate(63.623047 0)"/>
     <use xlink:href="#DejaVuSans-35" transform="translate(127.246094 0)"/>
     <use xlink:href="#DejaVuSans-20" transform="translate(190.869141 0)"/>
     <use xlink:href="#DejaVuSans-73" transform="translate(222.65625 0)"/>
     <use xlink:href="#DejaVuSans-74" transform="translate(274.755859 0)"/>
     <use xlink:href="#DejaVuSans-61" transform="translate(313.964844 0)"/>
     <use xlink:href="#DejaVuSans-72" transform="translate(375.244141 0)"/>
     <use xlink:href="#DejaVuSans-74" transform="translate(416.357422 0)"/>
     <use xlink:href="#DejaVuSans-75" transform="translate(455.566406 0)"/>
     <use xlink:href="#DejaVuSans-70" transform="translate(518.945312 0)"/>
     <use xlink:href="#DejaVuSans-73" transform="translate(582.421875 0)"/>
    </g>
    <!-- 11.9% revenue -->
    <g style="fill: #0f172a" transform="translate(131.826098 85.60298) scale(0.088 -0.088)">
     <defs>
      <path id="DejaVuSans-39" d="M 703 97 
L 703 672 
Q 941 559 1184 500 
Q 1428 441 1663 441 
Q 2288 441 2617 861 
Q 2947 1281 2994 2138 
Q 2813 1869 2534 1725 
Q 2256 1581 1919 1581 
Q 1219 1581 811 2004 
Q 403 2428 403 3163 
Q 403 3881 828 4315 
Q 1253 4750 1959 4750 
Q 2769 4750 3195 4129 
Q 3622 3509 3622 2328 
Q 3622 1225 3098 567 
Q 2575 -91 1691 -91 
Q 1453 -91 1209 -44 
Q 966 3 703 97 
z
M 1959 2075 
Q 2384 2075 2632 2365 
Q 2881 2656 2881 3163 
Q 2881 3666 2632 3958 
Q 2384 4250 1959 4250 
Q 1534 4250 1286 3958 
Q 1038 3666 1038 3163 
Q 1038 2656 1286 2365 
Q 1534 2075 1959 2075 
z
" transform="scale(0.015625)"/>
     </defs>
     <use xlink:href="#DejaVuSans-31"/>
     <use xlink:href="#DejaVuSans-31" transform="translate(63.623047 0)"/>
     <use xlink:href="#DejaVuSans-2e" transform="translate(127.246094 0)"/>
     <use xlink:href="#DejaVuSans-39" transform="translate(159.033203 0)"/>
     <use xlink:href="#DejaVuSans-25" transform="translate(222.65625 0)"/>
     <use xlink:href="#DejaVuSans-20" transform="translate(317.675781 0)"/>
     <use xlink:href="#DejaVuSans-72" transform="translate(349.462891 0)"/>
     <use xlink:href="#DejaVuSans-65" transform="translate(388.326172 0)"/>
     <use xlink:href="#DejaVuSans-76" transform="translate(449.849609 0)"/>
     <use xlink:href="#DejaVuSans-65" transform="translate(509.029297 0)"/>
     <use xlink:href="#DejaVuSans-6e" transform="translate(570.552734 0)"/>
     <use xlink:href="#DejaVuSans-75" transform="translate(633.931641 0)"/>
     <use xlink:href="#DejaVuSans-65" transform="translate(697.310547 0)"/>
    </g>
   </g>
   <g id="text_17">
    <!-- 27 startups -->
    <g style="fill: #0f172a" transform="translate(209.215845 305.916371) scale(0.088 -0.088)">
     <use xlink:href="#DejaVuSans-32"/>
     <use xlink:href="#DejaVuSans-37" transform="translate(63.623047 0)"/>
     <use xlink:href="#DejaVuSans-20" transform="translate(127.246094 0)"/>
     <use xlink:href="#DejaVuSans-73" transform="translate(159.033203 0)"/>
     <use xlink:href="#DejaVuSans-74" transform="translate(211.132812 0)"/>
     <use xlink:href="#DejaVuSans-61" transform="translate(250.341797 0)"/>
     <use xlink:href="#DejaVuSans-72" transform="translate(311.621094 0)"/>
     <use xlink:href="#DejaVuSans-74" transform="translate(352.734375 0)"/>
     <use xlink:href="#DejaVuSans-75" transform="translate(391.943359 0)"/>
     <use xlink:href="#DejaVuSans-70" transform="translate(455.322266 0)"/>
     <use xlink:href="#DejaVuSans-73" transform="translate(518.798828 0)"/>
    </g>
    <!-- 7.9% revenue -->
    <g style="fill: #0f172a" transform="translate(203.74472 315.770446) scale(0.088 -0.088)">
     <use xlink:href="#DejaVuSans-37"/>
     <use xlink:href="#DejaVuSans-2e" transform="translate(63.623047 0)"/>
     <use xlink:href="#DejaVuSans-39" transform="translate(95.410156 0)"/>
     <use xlink:href="#DejaVuSans-25" transform="translate(159.033203 0)"/>
     <use xlink:href="#DejaVuSans-20" transform="translate(254.052734 0)"/>
     <use xlink:href="#DejaVuSans-72" transform="translate(285.839844 0)"/>
     <use xlink:href="#DejaVuSans-65" transform="translate(324.703125 0)"/>
     <use xlink:href="#DejaVuSans-76" transform="translate(386.226562 0)"/>
     <use xlink:href="#DejaVuSans-65" transform="translate(445.40625 0)"/>
     <use xlink:href="#DejaVuSans-6e" transform="translate(506.929688 0)"/>
     <use xlink:href="#DejaVuSans-75" transform="translate(570.308594 0)"/>
     <use xlink:href="#DejaVuSans-65" transform="translate(633.6875 0)"/>
    </g>
   </g>
   <g id="text_18">
    <!-- 14 startups -->
    <g style="fill: #0f172a" transform="translate(278.334967 336.44879) scale(0.088 -0.088)">
     <use xlink:href="#DejaVuSans-31"/>
     <use xlink:href="#DejaVuSans-34" transform="translate(63.623047 0)"/>
     <use xlink:href="#DejaVuSans-20" transform="translate(127.246094 0)"/>
     <use xlink:href="#DejaVuSans-73" transform="translate(159.033203 0)"/>
     <use xlink:href="#DejaVuSans-74" transform="translate(211.132812 0)"/>
     <use xlink:href="#DejaVuSans-61" transform="translate(250.341797 0)"/>
     <use xlink:href="#DejaVuSans-72" transform="translate(311.621094 0)"/>
     <use xlink:href="#DejaVuSans-74" transform="translate(352.734375 0)"/>
     <use xlink:href="#DejaVuSans-75" transform="translate(391.943359 0)"/>
     <use xlink:href="#DejaVuSans-70" transform="translate(455.322266 0)"/>
     <use xlink:href="#DejaVuSans-73" transform="translate(518.798828 0)"/>
    </g>
    <!-- 13.8% revenue -->
    <g style="fill: #0f172a" transform="translate(270.064342 346.302865) scale(0.088 -0.088)">
     <defs>
      <path id="DejaVuSans-33" d="M 2597 2516 
Q 3050 2419 3304 2112 
Q 3559 1806 3559 1356 
Q 3559 666 3084 287 
Q 2609 -91 1734 -91 
Q 1441 -91 1130 -33 
Q 819 25 488 141 
L 488 750 
Q 750 597 1062 519 
Q 1375 441 1716 441 
Q 2309 441 2620 675 
Q 2931 909 2931 1356 
Q 2931 1769 2642 2001 
Q 2353 2234 1838 2234 
L 1294 2234 
L 1294 2753 
L 1863 2753 
Q 2328 2753 2575 2939 
Q 2822 3125 2822 3475 
Q 2822 3834 2567 4026 
Q 2313 4219 1838 4219 
Q 1578 4219 1281 4162 
Q 984 4106 628 3988 
L 628 4550 
Q 988 4650 1302 4700 
Q 1616 4750 1894 4750 
Q 2613 4750 3031 4423 
Q 3450 4097 3450 3541 
Q 3450 3153 3228 2886 
Q 3006 2619 2597 2516 
z
" transform="scale(0.015625)"/>
     </defs>
     <use xlink:href="#DejaVuSans-31"/>
     <use xlink:href="#DejaVuSans-33" transform="translate(63.623047 0)"/>
     <use xlink:href="#DejaVuSans-2e" transform="translate(127.246094 0)"/>
     <use xlink:href="#DejaVuSans-38" transform="translate(159.033203 0)"/>
     <use xlink:href="#DejaVuSans-25" transform="translate(222.65625 0)"/>
     <use xlink:href="#DejaVuSans-20" transform="translate(317.675781 0)"/>
     <use xlink:href="#DejaVuSans-72" transform="translate(349.462891 0)"/>
     <use xlink:href="#DejaVuSans-65" transform="translate(388.326172 0)"/>
     <use xlink:href="#DejaVuSans-76" transform="translate(449.849609 0)"/>
     <use xlink:href="#DejaVuSans-65" transform="translate(509.029297 0)"/>
     <use xlink:href="#DejaVuSans-6e" transform="translate(570.552734 0)"/>
     <use xlink:href="#DejaVuSans-75" transform="translate(633.931641 0)"/>
     <use xlink:href="#DejaVuSans-65" transform="translate(697.310547 0)"/>
    </g>
   </g>
   <g id="text_19">
    <!-- 2 startups -->
    <g style="fill: #0f172a" transform="translate(350.25359 364.632562) scale(0.088 -0.088)">
     <use xlink:href="#DejaVuSans-32"/>
     <use xlink:href="#DejaVuSans-20" transform="translate(63.623047 0)"/>
     <use xlink:href="#DejaVuSans-73" transform="translate(95.410156 0)"/>
     <use xlink:href="#DejaVuSans-74" transform="translate(147.509766 0)"/>
     <use xlink:href="#DejaVuSans-61" transform="translate(186.71875 0)"/>
     <use xlink:href="#DejaVuSans-72" transform="translate(247.998047 0)"/>
     <use xlink:href="#DejaVuSans-74" transform="translate(289.111328 0)"/>
     <use xlink:href="#DejaVuSans-75" transform="translate(328.320312 0)"/>
     <use xlink:href="#DejaVuSans-70" transform="translate(391.699219 0)"/>
     <use xlink:href="#DejaVuSans-73" transform="translate(455.175781 0)"/>
    </g>
    <!-- 7.0% revenue -->
    <g style="fill: #0f172a" transform="translate(341.982965 374.486637) scale(0.088 -0.088)">
     <use xlink:href="#DejaVuSans-37"/>
     <use xlink:href="#DejaVuSans-2e" transform="translate(63.623047 0)"/>
     <use xlink:href="#DejaVuSans-30" transform="translate(95.410156 0)"/>
     <use xlink:href="#DejaVuSans-25" transform="translate(159.033203 0)"/>
     <use xlink:href="#DejaVuSans-20" transform="translate(254.052734 0)"/>
     <use xlink:href="#DejaVuSans-72" transform="translate(285.839844 0)"/>
     <use xlink:href="#DejaVuSans-65" transform="translate(324.703125 0)"/>
     <use xlink:href="#DejaVuSans-76" transform="translate(386.226562 0)"/>
     <use xlink:href="#DejaVuSans-65" transform="translate(445.40625 0)"/>
     <use xlink:href="#DejaVuSans-6e" transform="translate(506.929688 0)"/>
     <use xlink:href="#DejaVuSans-75" transform="translate(570.308594 0)"/>
     <use xlink:href="#DejaVuSans-65" transform="translate(633.6875 0)"/>
    </g>
   </g>
   <g id="text_20">
    <!-- 4 startups -->
    <g style="fill: #0f172a" transform="translate(419.372712 359.935267) scale(0.088 -0.088)">
     <use xlink:href="#DejaVuSans-34"/>
     <use xlink:href="#DejaVuSans-20" transform="translate(63.623047 0)"/>
     <use xlink:href="#DejaVuSans-73" transform="translate(95.410156 0)"/>
     <use xlink:href="#DejaVuSans-74" transform="translate(147.509766 0)"/>
     <use xlink:href="#DejaVuSans-61" transform="translate(186.71875 0)"/>
     <use xlink:href="#DejaVuSans-72" transform="translate(247.998047 0)"/>
     <use xlink:href="#DejaVuSans-74" transform="translate(289.111328 0)"/>
     <use xlink:href="#DejaVuSans-75" transform="translate(328.320312 0)"/>
     <use xlink:href="#DejaVuSans-70" transform="translate(391.699219 0)"/>
     <use xlink:href="#DejaVuSans-73" transform="translate(455.175781 0)"/>
    </g>
    <!-- 57.6% revenue -->
    <g style="fill: #0f172a" transform="translate(408.302587 369.789342) scale(0.088 -0.088)">
     <use xlink:href="#DejaVuSans-35"/>
     <use xlink:href="#DejaVuSans-37" transform="translate(63.623047 0)"/>
     <use xlink:href="#DejaVuSans-2e" transform="translate(127.246094 0)"/>
     <use xlink:href="#DejaVuSans-36" transform="translate(159.033203 0)"/>
     <use xlink:href="#DejaVuSans-25" transform="translate(222.65625 0)"/>
     <use xlink:href="#DejaVuSans-20" transform="translate(317.675781 0)"/>
     <use xlink:href="#DejaVuSans-72" transform="translate(349.462891 0)"/>
     <use xlink:href="#DejaVuSans-65" transform="translate(388.326172 0)"/>
     <use xlink:href="#DejaVuSans-76" transform="translate(449.849609 0)"/>
     <use xlink:href="#DejaVuSans-65" transform="translate(509.029297 0)"/>
     <use xlink:href="#DejaVuSans-6e" transform="translate(570.552734 0)"/>
     <use xlink:href="#DejaVuSans-75" transform="translate(633.931641 0)"/>
     <use xlink:href="#DejaVuSans-65" transform="translate(697.310547 0)"/>
    </g>
   </g>
   <g id="text_21">
    <!-- Revenue bands -->
    <g transform="translate(48.403906 73.8) scale(0.13 -0.13)">
     <defs>
      <path id="DejaVuSans-Bold-52" d="M 2297 2597 
Q 2675 2597 2839 2737 
Q 3003 2878 3003 3200 
Q 3003 3519 2839 3656 
Q 2675 3794 2297 3794 
L 1791 3794 
L 1791 2597 
L 2297 2597 
z
M 1791 1766 
L 1791 0 
L 588 0 
L 588 4666 
L 2425 4666 
Q 3347 4666 3776 4356 
Q 4206 4047 4206 3378 
Q 4206 2916 3982 2619 
Q 3759 2322 3309 2181 
Q 3556 2125 3751 1926 
Q 3947 1728 4147 1325 
L 4800 0 
L 3519 0 
L 2950 1159 
Q 2778 1509 2601 1637 
Q 2425 1766 2131 1766 
L 1791 1766 
z
" transform="scale(0.015625)"/>
      <path id="DejaVuSans-Bold-65" d="M 4031 1759 
L 4031 1441 
L 1416 1441 
Q 1456 1047 1700 850 
Q 1944 653 2381 653 
Q 2734 653 3104 758 
Q 3475 863 3866 1075 
L 3866 213 
Q 3469 63 3072 -14 
Q 2675 -91 2278 -91 
Q 1328 -91 801 392 
Q 275 875 275 1747 
Q 275 2603 792 3093 
Q 1309 3584 2216 3584 
Q 3041 3584 3536 3087 
Q 4031 2591 4031 1759 
z
M 2881 2131 
Q 2881 2450 2695 2645 
Q 2509 2841 2209 2841 
Q 1884 2841 1681 2658 
Q 1478 2475 1428 2131 
L 2881 2131 
z
" transform="scale(0.015625)"/>
      <path id="DejaVuSans-Bold-76" d="M 97 3500 
L 1216 3500 
L 2088 1081 
L 2956 3500 
L 4078 3500 
L 2700 0 
L 1472 0 
L 97 3500 
z
" transform="scale(0.015625)"/>
      <path id="DejaVuSans-Bold-6e" d="M 4056 2131 
L 4056 0 
L 2931 0 
L 2931 347 
L 2931 1631 
Q 2931 2084 2911 2256 
Q 2891 2428 2841 2509 
Q 2775 2619 2662 2680 
Q 2550 2741 2406 2741 
Q 2056 2741 1856 2470 
Q 1656 2200 1656 1722 
L 1656 0 
L 538 0 
L 538 3500 
L 1656 3500 
L 1656 2988 
Q 1909 3294 2193 3439 
Q 2478 3584 2822 3584 
Q 3428 3584 3742 3212 
Q 4056 2841 4056 2131 
z
" transform="scale(0.015625)"/>
      <path id="DejaVuSans-Bold-75" d="M 500 1363 
L 500 3500 
L 1625 3500 
L 1625 3150 
Q 1625 2866 1622 2436 
Q 1619 2006 1619 1863 
Q 1619 1441 1641 1255 
Q 1663 1069 1716 984 
Q 1784 875 1895 815 
Q 2006 756 2150 756 
Q 2500 756 2700 1025 
Q 2900 1294 2900 1772 
L 2900 3500 
L 4019 3500 
L 4019 0 
L 2900 0 
L 2900 506 
Q 2647 200 2364 54 
Q 2081 -91 1741 -91 
Q 1134 -91 817 281 
Q 500 653 500 1363 
z
" transform="scale(0.015625)"/>
      <path id="DejaVuSans-Bold-20" transform="scale(0.015625)"/>
      <path id="DejaVuSans-Bold-62" d="M 2400 722 
Q 2759 722 2948 984 
Q 3138 1247 3138 1747 
Q 3138 2247 2948 2509 
Q 2759 2772 2400 2772 
Q 2041 2772 1848 2508 
Q 1656 2244 1656 1747 
Q 1656 1250 1848 986 
Q 2041 722 2400 722 
z
M 1656 2988 
Q 1888 3294 2169 3439 
Q 2450 3584 2816 3584 
Q 3463 3584 3878 3070 
Q 4294 2556 4294 1747 
Q 4294 938 3878 423 
Q 3463 -91 2816 -91 
Q 2450 -91 2169 54 
Q 1888 200 1656 506 
L 1656 0 
L 538 0 
L 538 4863 
L 1656 4863 
L 1656 2988 
z
" transform="scale(0.015625)"/>
      <path id="DejaVuSans-Bold-61" d="M 2106 1575 
Q 1756 1575 1579 1456 
Q 1403 1338 1403 1106 
Q 1403 894 1545 773 
Q 1688 653 1941 653 
Q 2256 653 2472 879 
Q 2688 1106 2688 1447 
L 2688 1575 
L 2106 1575 
z
M 3816 1997 
L 3816 0 
L 2688 0 
L 2688 519 
Q 2463 200 2181 54 
Q 1900 -91 1497 -91 
Q 953 -91 614 226 
Q 275 544 275 1050 
Q 275 1666 698 1953 
Q 1122 2241 2028 2241 
L 2688 2241 
L 2688 2328 
Q 2688 2594 2478 2717 
Q 2269 2841 1825 2841 
Q 1466 2841 1156 2769 
Q 847 2697 581 2553 
L 581 3406 
Q 941 3494 1303 3539 
Q 1666 3584 2028 3584 
Q 2975 3584 3395 3211 
Q 3816 2838 3816 1997 
z
" transform="scale(0.015625)"/>
      <path id="DejaVuSans-Bold-64" d="M 2919 2988 
L 2919 4863 
L 4044 4863 
L 4044 0 
L 2919 0 
L 2919 506 
Q 2688 197 2409 53 
Q 2131 -91 1766 -91 
Q 1119 -91 703 423 
Q 288 938 288 1747 
Q 288 2556 703 3070 
Q 1119 3584 1766 3584 
Q 2128 3584 2408 3439 
Q 2688 3294 2919 2988 
z
M 2181 722 
Q 2541 722 2730 984 
Q 2919 1247 2919 1747 
Q 2919 2247 2730 2509 
Q 2541 2772 2181 2772 
Q 1825 2772 1636 2509 
Q 1447 2247 1447 1747 
Q 1447 1247 1636 984 
Q 1825 722 2181 722 
z
" transform="scale(0.015625)"/>
      <path id="DejaVuSans-Bold-73" d="M 3272 3391 
L 3272 2541 
Q 2913 2691 2578 2766 
Q 2244 2841 1947 2841 
Q 1628 2841 1473 2761 
Q 1319 2681 1319 2516 
Q 1319 2381 1436 2309 
Q 1553 2238 1856 2203 
L 2053 2175 
Q 2913 2066 3209 1816 
Q 3506 1566 3506 1031 
Q 3506 472 3093 190 
Q 2681 -91 1863 -91 
Q 1516 -91 1145 -36 
Q 775 19 384 128 
L 384 978 
Q 719 816 1070 734 
Q 1422 653 1784 653 
Q 2113 653 2278 743 
Q 2444 834 2444 1013 
Q 2444 1163 2330 1236 
Q 2216 1309 1875 1350 
L 1678 1375 
Q 931 1469 631 1722 
Q 331 1975 331 2491 
Q 331 3047 712 3315 
Q 1094 3584 1881 3584 
Q 2191 3584 2531 3537 
Q 2872 3491 3272 3391 
z
" transform="scale(0.015625)"/>
     </defs>
     <use xlink:href="#DejaVuSans-Bold-52"/>
     <use xlink:href="#DejaVuSans-Bold-65" transform="translate(77.001953 0)"/>
     <use xlink:href="#DejaVuSans-Bold-76" transform="translate(144.824219 0)"/>
     <use xlink:href="#DejaVuSans-Bold-65" transform="translate(210.009766 0)"/>
     <use xlink:href="#DejaVuSans-Bold-6e" transform="translate(277.832031 0)"/>
     <use xlink:href="#DejaVuSans-Bold-75" transform="translate(349.023438 0)"/>
     <use xlink:href="#DejaVuSans-Bold-65" transform="translate(420.214844 0)"/>
     <use xlink:href="#DejaVuSans-Bold-20" transform="translate(488.037109 0)"/>
     <use xlink:href="#DejaVuSans-Bold-62" transform="translate(522.851562 0)"/>
     <use xlink:href="#DejaVuSans-Bold-61" transform="translate(594.433594 0)"/>
     <use xlink:href="#DejaVuSans-Bold-6e" transform="translate(661.914062 0)"/>
     <use xlink:href="#DejaVuSans-Bold-64" transform="translate(733.105469 0)"/>
     <use xlink:href="#DejaVuSans-Bold-73" transform="translate(804.6875 0)"/>
    </g>
   </g>
  </g>
  <g id="axes_2">
   <g id="patch_11">
    <path d="M 551.683906 388.06 
L 992.663906 388.06 
L 992.663906 79.8 
L 551.683906 79.8 
z
" style="fill: #ffffff"/>
   </g>
   <g id="FillBetweenPolyCollection_1">
    <defs>
     <path id="m8d001a0ffe" d="M 571.728452 -38.524062 
L 571.728452 -124.3191 
L 573.486745 -161.778906 
L 575.245039 -194.405188 
L 577.003332 -207.697377 
L 578.761626 -219.696598 
L 580.519919 -228.264018 
L 582.278212 -233.967575 
L 584.036506 -238.559423 
L 585.794799 -241.870386 
L 587.553093 -245.169266 
L 589.311386 -248.41981 
L 591.06968 -251.609935 
L 592.827973 -254.304625 
L 594.586267 -256.914727 
L 596.34456 -259.36774 
L 598.102854 -261.65158 
L 599.861147 -263.766246 
L 601.619441 -265.615069 
L 603.377734 -267.355137 
L 605.136027 -268.79311 
L 606.894321 -269.977324 
L 608.652614 -271.113202 
L 610.410908 -272.236996 
L 612.169201 -273.312455 
L 613.927495 -274.387914 
L 615.685788 -275.427121 
L 617.444082 -276.454245 
L 619.202375 -277.481369 
L 620.960669 -278.484325 
L 622.718962 -279.451029 
L 624.477256 -280.369399 
L 626.235549 -281.2636 
L 627.993842 -282.157802 
L 629.752136 -283.003669 
L 631.510429 -283.837452 
L 633.268723 -284.634983 
L 635.027016 -285.408347 
L 636.78531 -286.169627 
L 638.543603 -286.894655 
L 640.301897 -287.559265 
L 642.06019 -288.223874 
L 643.818484 -288.888483 
L 645.576777 -289.553093 
L 647.335071 -290.205619 
L 649.093364 -290.84606 
L 650.851657 -291.462335 
L 652.609951 -292.066525 
L 654.368244 -292.634464 
L 656.126538 -293.190319 
L 657.884831 -293.746174 
L 659.643125 -294.302029 
L 661.401418 -294.845801 
L 663.159712 -295.377488 
L 664.918005 -295.909176 
L 666.676299 -296.416696 
L 668.434592 -296.924216 
L 670.192886 -297.431736 
L 671.951179 -297.927172 
L 673.709472 -298.410524 
L 675.467766 -298.893877 
L 677.226059 -299.365145 
L 678.984353 -299.82433 
L 680.742646 -300.283515 
L 682.50094 -300.730615 
L 684.259233 -301.177716 
L 686.017527 -301.624817 
L 687.77582 -302.071918 
L 689.534114 -302.506935 
L 691.292407 -302.941952 
L 693.050701 -303.376969 
L 694.808994 -303.811986 
L 696.567287 -304.23492 
L 698.325581 -304.645769 
L 700.083874 -305.032451 
L 701.842168 -305.419133 
L 703.600461 -305.805815 
L 705.358755 -306.192497 
L 707.117048 -306.579179 
L 708.875342 -306.953777 
L 710.633635 -307.328375 
L 712.391929 -307.702973 
L 714.150222 -308.065487 
L 715.908516 -308.428001 
L 717.666809 -308.790515 
L 719.425102 -309.15303 
L 721.183396 -309.50346 
L 722.941689 -309.853891 
L 724.699983 -310.180153 
L 726.458276 -310.506416 
L 728.21657 -310.820595 
L 729.974863 -311.134774 
L 731.733157 -311.436869 
L 733.49145 -311.738965 
L 735.249744 -312.028976 
L 737.008037 -312.318987 
L 738.76633 -312.608999 
L 740.524624 -312.89901 
L 742.282917 -313.176938 
L 744.041211 -313.454865 
L 745.799504 -313.732793 
L 747.557798 -314.010721 
L 749.316091 -314.288648 
L 751.074385 -314.554492 
L 752.832678 -314.820336 
L 754.590972 -315.086179 
L 756.349265 -315.339939 
L 758.107559 -315.593699 
L 759.865852 -315.847459 
L 761.624145 -316.101219 
L 763.382439 -316.354979 
L 765.140732 -316.596656 
L 766.899026 -316.838332 
L 768.657319 -317.080008 
L 770.415613 -317.321684 
L 772.173906 -317.551276 
L 773.9322 -317.780869 
L 775.690493 -318.010461 
L 777.448787 -318.22797 
L 779.20708 -318.445478 
L 780.965374 -318.662987 
L 782.723667 -318.880495 
L 784.48196 -319.098004 
L 786.240254 -319.315512 
L 787.998547 -319.533021 
L 789.756841 -319.738446 
L 791.515134 -319.94387 
L 793.273428 -320.149295 
L 795.031721 -320.342636 
L 796.790015 -320.535977 
L 798.548308 -320.729318 
L 800.306602 -320.922659 
L 802.064895 -321.116 
L 803.823189 -321.297257 
L 805.581482 -321.478514 
L 807.339775 -321.659771 
L 809.098069 -321.841028 
L 810.856362 -322.010202 
L 812.614656 -322.179375 
L 814.372949 -322.348548 
L 816.131243 -322.517721 
L 817.889536 -322.686895 
L 819.64783 -322.856068 
L 821.406123 -323.025241 
L 823.164417 -323.194415 
L 824.92271 -323.351504 
L 826.681004 -323.508594 
L 828.439297 -323.665683 
L 830.19759 -323.822773 
L 831.955884 -323.967778 
L 833.714177 -324.112784 
L 835.472471 -324.25779 
L 837.230764 -324.402796 
L 838.989058 -324.547801 
L 840.747351 -324.692807 
L 842.505645 -324.837813 
L 844.263938 -324.982818 
L 846.022232 -325.127824 
L 847.780525 -325.27283 
L 849.538819 -325.417835 
L 851.297112 -325.562841 
L 853.055405 -325.695763 
L 854.813699 -325.828685 
L 856.571992 -325.961607 
L 858.330286 -326.094529 
L 860.088579 -326.227451 
L 861.846873 -326.360372 
L 863.605166 -326.481211 
L 865.36346 -326.602049 
L 867.121753 -326.722887 
L 868.880047 -326.843725 
L 870.63834 -326.964563 
L 872.396634 -327.085401 
L 874.154927 -327.205031 
L 875.91322 -327.323452 
L 877.671514 -327.440665 
L 879.429807 -327.557878 
L 881.188101 -327.675091 
L 882.946394 -327.791095 
L 884.704688 -327.905892 
L 886.462981 -328.015854 
L 888.221275 -328.125817 
L 889.979568 -328.234571 
L 891.737862 -328.340909 
L 893.496155 -328.446038 
L 895.254449 -328.551167 
L 897.012742 -328.656296 
L 898.771035 -328.761425 
L 900.529329 -328.864138 
L 902.287622 -328.964433 
L 904.045916 -329.062312 
L 905.804209 -329.160191 
L 907.562503 -329.25807 
L 909.320796 -329.35474 
L 911.07909 -329.450202 
L 912.837383 -329.544456 
L 914.595677 -329.637501 
L 916.35397 -329.730547 
L 918.112264 -329.822384 
L 919.870557 -329.913012 
L 921.62885 -330.002432 
L 923.387144 -330.089436 
L 925.145437 -330.176439 
L 926.903731 -330.259817 
L 928.662024 -330.341987 
L 930.420318 -330.422949 
L 932.178611 -330.50391 
L 933.936905 -330.583663 
L 935.695198 -330.663417 
L 937.453492 -330.741961 
L 939.211785 -330.820506 
L 940.970078 -330.896634 
L 942.728372 -330.972762 
L 944.486665 -331.047682 
L 946.244959 -331.121393 
L 948.003252 -331.193896 
L 949.761546 -331.266399 
L 951.519839 -331.335276 
L 953.278133 -331.402946 
L 955.036426 -331.470615 
L 956.79472 -331.537076 
L 958.553013 -331.602328 
L 960.311307 -331.667581 
L 962.0696 -331.731625 
L 963.827893 -331.795669 
L 965.586187 -331.859714 
L 967.34448 -331.921341 
L 969.102774 -331.982968 
L 970.861067 -332.044596 
L 972.619361 -332.105015 
L 972.619361 -38.524062 
L 972.619361 -38.524062 
L 970.861067 -38.524062 
L 969.102774 -38.524062 
L 967.34448 -38.524062 
L 965.586187 -38.524062 
L 963.827893 -38.524062 
L 962.0696 -38.524062 
L 960.311307 -38.524062 
L 958.553013 -38.524062 
L 956.79472 -38.524062 
L 955.036426 -38.524062 
L 953.278133 -38.524062 
L 951.519839 -38.524062 
L 949.761546 -38.524062 
L 948.003252 -38.524062 
L 946.244959 -38.524062 
L 944.486665 -38.524062 
L 942.728372 -38.524062 
L 940.970078 -38.524062 
L 939.211785 -38.524062 
L 937.453492 -38.524062 
L 935.695198 -38.524062 
L 933.936905 -38.524062 
L 932.178611 -38.524062 
L 930.420318 -38.524062 
L 928.662024 -38.524062 
L 926.903731 -38.524062 
L 925.145437 -38.524062 
L 923.387144 -38.524062 
L 921.62885 -38.524062 
L 919.870557 -38.524062 
L 918.112264 -38.524062 
L 916.35397 -38.524062 
L 914.595677 -38.524062 
L 912.837383 -38.524062 
L 911.07909 -38.524062 
L 909.320796 -38.524062 
L 907.562503 -38.524062 
L 905.804209 -38.524062 
L 904.045916 -38.524062 
L 902.287622 -38.524062 
L 900.529329 -38.524062 
L 898.771035 -38.524062 
L 897.012742 -38.524062 
L 895.254449 -38.524062 
L 893.496155 -38.524062 
L 891.737862 -38.524062 
L 889.979568 -38.524062 
L 888.221275 -38.524062 
L 886.462981 -38.524062 
L 884.704688 -38.524062 
L 882.946394 -38.524062 
L 881.188101 -38.524062 
L 879.429807 -38.524062 
L 877.671514 -38.524062 
L 875.91322 -38.524062 
L 874.154927 -38.524062 
L 872.396634 -38.524062 
L 870.63834 -38.524062 
L 868.880047 -38.524062 
L 867.121753 -38.524062 
L 865.36346 -38.524062 
L 863.605166 -38.524062 
L 861.846873 -38.524062 
L 860.088579 -38.524062 
L 858.330286 -38.524062 
L 856.571992 -38.524062 
L 854.813699 -38.524062 
L 853.055405 -38.524062 
L 851.297112 -38.524062 
L 849.538819 -38.524062 
L 847.780525 -38.524062 
L 846.022232 -38.524062 
L 844.263938 -38.524062 
L 842.505645 -38.524062 
L 840.747351 -38.524062 
L 838.989058 -38.524062 
L 837.230764 -38.524062 
L 835.472471 -38.524062 
L 833.714177 -38.524062 
L 831.955884 -38.524062 
L 830.19759 -38.524062 
L 828.439297 -38.524062 
L 826.681004 -38.524062 
L 824.92271 -38.524062 
L 823.164417 -38.524062 
L 821.406123 -38.524062 
L 819.64783 -38.524062 
L 817.889536 -38.524062 
L 816.131243 -38.524062 
L 814.372949 -38.524062 
L 812.614656 -38.524062 
L 810.856362 -38.524062 
L 809.098069 -38.524062 
L 807.339775 -38.524062 
L 805.581482 -38.524062 
L 803.823189 -38.524062 
L 802.064895 -38.524062 
L 800.306602 -38.524062 
L 798.548308 -38.524062 
L 796.790015 -38.524062 
L 795.031721 -38.524062 
L 793.273428 -38.524062 
L 791.515134 -38.524062 
L 789.756841 -38.524062 
L 787.998547 -38.524062 
L 786.240254 -38.524062 
L 784.48196 -38.524062 
L 782.723667 -38.524062 
L 780.965374 -38.524062 
L 779.20708 -38.524062 
L 777.448787 -38.524062 
L 775.690493 -38.524062 
L 773.9322 -38.524062 
L 772.173906 -38.524062 
L 770.415613 -38.524062 
L 768.657319 -38.524062 
L 766.899026 -38.524062 
L 765.140732 -38.524062 
L 763.382439 -38.524062 
L 761.624145 -38.524062 
L 759.865852 -38.524062 
L 758.107559 -38.524062 
L 756.349265 -38.524062 
L 754.590972 -38.524062 
L 752.832678 -38.524062 
L 751.074385 -38.524062 
L 749.316091 -38.524062 
L 747.557798 -38.524062 
L 745.799504 -38.524062 
L 744.041211 -38.524062 
L 742.282917 -38.524062 
L 740.524624 -38.524062 
L 738.76633 -38.524062 
L 737.008037 -38.524062 
L 735.249744 -38.524062 
L 733.49145 -38.524062 
L 731.733157 -38.524062 
L 729.974863 -38.524062 
L 728.21657 -38.524062 
L 726.458276 -38.524062 
L 724.699983 -38.524062 
L 722.941689 -38.524062 
L 721.183396 -38.524062 
L 719.425102 -38.524062 
L 717.666809 -38.524062 
L 715.908516 -38.524062 
L 714.150222 -38.524062 
L 712.391929 -38.524062 
L 710.633635 -38.524062 
L 708.875342 -38.524062 
L 707.117048 -38.524062 
L 705.358755 -38.524062 
L 703.600461 -38.524062 
L 701.842168 -38.524062 
L 700.083874 -38.524062 
L 698.325581 -38.524062 
L 696.567287 -38.524062 
L 694.808994 -38.524062 
L 693.050701 -38.524062 
L 691.292407 -38.524062 
L 689.534114 -38.524062 
L 687.77582 -38.524062 
L 686.017527 -38.524062 
L 684.259233 -38.524062 
L 682.50094 -38.524062 
L 680.742646 -38.524062 
L 678.984353 -38.524062 
L 677.226059 -38.524062 
L 675.467766 -38.524062 
L 673.709472 -38.524062 
L 671.951179 -38.524062 
L 670.192886 -38.524062 
L 668.434592 -38.524062 
L 666.676299 -38.524062 
L 664.918005 -38.524062 
L 663.159712 -38.524062 
L 661.401418 -38.524062 
L 659.643125 -38.524062 
L 657.884831 -38.524062 
L 656.126538 -38.524062 
L 654.368244 -38.524062 
L 652.609951 -38.524062 
L 650.851657 -38.524062 
L 649.093364 -38.524062 
L 647.335071 -38.524062 
L 645.576777 -38.524062 
L 643.818484 -38.524062 
L 642.06019 -38.524062 
L 640.301897 -38.524062 
L 638.543603 -38.524062 
L 636.78531 -38.524062 
L 635.027016 -38.524062 
L 633.268723 -38.524062 
L 631.510429 -38.524062 
L 629.752136 -38.524062 
L 627.993842 -38.524062 
L 626.235549 -38.524062 
L 624.477256 -38.524062 
L 622.718962 -38.524062 
L 620.960669 -38.524062 
L 619.202375 -38.524062 
L 617.444082 -38.524062 
L 615.685788 -38.524062 
L 613.927495 -38.524062 
L 612.169201 -38.524062 
L 610.410908 -38.524062 
L 608.652614 -38.524062 
L 606.894321 -38.524062 
L 605.136027 -38.524062 
L 603.377734 -38.524062 
L 601.619441 -38.524062 
L 599.861147 -38.524062 
L 598.102854 -38.524062 
L 596.34456 -38.524062 
L 594.586267 -38.524062 
L 592.827973 -38.524062 
L 591.06968 -38.524062 
L 589.311386 -38.524062 
L 587.553093 -38.524062 
L 585.794799 -38.524062 
L 584.036506 -38.524062 
L 582.278212 -38.524062 
L 580.519919 -38.524062 
L 578.761626 -38.524062 
L 577.003332 -38.524062 
L 575.245039 -38.524062 
L 573.486745 -38.524062 
L 571.728452 -38.524062 
z
" style="stroke: #93c5fd; stroke-opacity: 0.45"/>
    </defs>
    <g clip-path="url(#p381093f6eb)">
     <use xlink:href="#m8d001a0ffe" x="0" y="426.584062" style="fill: #93c5fd; fill-opacity: 0.45; stroke: #93c5fd; stroke-opacity: 0.45"/>
    </g>
   </g>
   <g id="matplotlib.axis_3">
    <g id="xtick_7">
     <g id="line2d_27">
      <path d="M 569.970158 388.06 
L 569.970158 79.8 
" clip-path="url(#p381093f6eb)" style="fill: none; stroke: #e2e8f0; stroke-width: 0.8; stroke-linecap: square"/>
     </g>
     <g id="line2d_28">
      <g>
       <use xlink:href="#m7bb9331b07" x="569.970158" y="388.06" style="fill: #0f172a; stroke: #0f172a; stroke-width: 0.8"/>
      </g>
     </g>
     <g id="text_22">
      <!-- 0% -->
      <g style="fill: #0f172a" transform="translate(561.641525 403.038359) scale(0.105 -0.105)">
       <use xlink:href="#DejaVuSans-30"/>
       <use xlink:href="#DejaVuSans-25" transform="translate(63.623047 0)"/>
      </g>
     </g>
    </g>
    <g id="xtick_8">
     <g id="line2d_29">
      <path d="M 650.499999 388.06 
L 650.499999 79.8 
" clip-path="url(#p381093f6eb)" style="fill: none; stroke: #e2e8f0; stroke-width: 0.8; stroke-linecap: square"/>
     </g>
     <g id="line2d_30">
      <g>
       <use xlink:href="#m7bb9331b07" x="650.499999" y="388.06" style="fill: #0f172a; stroke: #0f172a; stroke-width: 0.8"/>
      </g>
     </g>
     <g id="text_23">
      <!-- 20% -->
      <g style="fill: #0f172a" transform="translate(638.831053 403.038359) scale(0.105 -0.105)">
       <use xlink:href="#DejaVuSans-32"/>
       <use xlink:href="#DejaVuSans-30" transform="translate(63.623047 0)"/>
       <use xlink:href="#DejaVuSans-25" transform="translate(127.246094 0)"/>
      </g>
     </g>
    </g>
    <g id="xtick_9">
     <g id="line2d_31">
      <path d="M 731.029839 388.06 
L 731.029839 79.8 
" clip-path="url(#p381093f6eb)" style="fill: none; stroke: #e2e8f0; stroke-width: 0.8; stroke-linecap: square"/>
     </g>
     <g id="line2d_32">
      <g>
       <use xlink:href="#m7bb9331b07" x="731.029839" y="388.06" style="fill: #0f172a; stroke: #0f172a; stroke-width: 0.8"/>
      </g>
     </g>
     <g id="text_24">
      <!-- 40% -->
      <g style="fill: #0f172a" transform="translate(719.360894 403.038359) scale(0.105 -0.105)">
       <use xlink:href="#DejaVuSans-34"/>
       <use xlink:href="#DejaVuSans-30" transform="translate(63.623047 0)"/>
       <use xlink:href="#DejaVuSans-25" transform="translate(127.246094 0)"/>
      </g>
     </g>
    </g>
    <g id="xtick_10">
     <g id="line2d_33">
      <path d="M 811.55968 388.06 
L 811.55968 79.8 
" clip-path="url(#p381093f6eb)" style="fill: none; stroke: #e2e8f0; stroke-width: 0.8; stroke-linecap: square"/>
     </g>
     <g id="line2d_34">
      <g>
       <use xlink:href="#m7bb9331b07" x="811.55968" y="388.06" style="fill: #0f172a; stroke: #0f172a; stroke-width: 0.8"/>
      </g>
     </g>
     <g id="text_25">
      <!-- 60% -->
      <g style="fill: #0f172a" transform="translate(799.890734 403.038359) scale(0.105 -0.105)">
       <use xlink:href="#DejaVuSans-36"/>
       <use xlink:href="#DejaVuSans-30" transform="translate(63.623047 0)"/>
       <use xlink:href="#DejaVuSans-25" transform="translate(127.246094 0)"/>
      </g>
     </g>
    </g>
    <g id="xtick_11">
     <g id="line2d_35">
      <path d="M 892.08952 388.06 
L 892.08952 79.8 
" clip-path="url(#p381093f6eb)" style="fill: none; stroke: #e2e8f0; stroke-width: 0.8; stroke-linecap: square"/>
     </g>
     <g id="line2d_36">
      <g>
       <use xlink:href="#m7bb9331b07" x="892.08952" y="388.06" style="fill: #0f172a; stroke: #0f172a; stroke-width: 0.8"/>
      </g>
     </g>
     <g id="text_26">
      <!-- 80% -->
      <g style="fill: #0f172a" transform="translate(880.420575 403.038359) scale(0.105 -0.105)">
       <use xlink:href="#DejaVuSans-38"/>
       <use xlink:href="#DejaVuSans-30" transform="translate(63.623047 0)"/>
       <use xlink:href="#DejaVuSans-25" transform="translate(127.246094 0)"/>
      </g>
     </g>
    </g>
    <g id="xtick_12">
     <g id="line2d_37">
      <path d="M 972.619361 388.06 
L 972.619361 79.8 
" clip-path="url(#p381093f6eb)" style="fill: none; stroke: #e2e8f0; stroke-width: 0.8; stroke-linecap: square"/>
     </g>
     <g id="line2d_38">
      <g>
       <use xlink:href="#m7bb9331b07" x="972.619361" y="388.06" style="fill: #0f172a; stroke: #0f172a; stroke-width: 0.8"/>
      </g>
     </g>
     <g id="text_27">
      <!-- 100% -->
      <g style="fill: #0f172a" transform="translate(957.610103 403.038359) scale(0.105 -0.105)">
       <use xlink:href="#DejaVuSans-31"/>
       <use xlink:href="#DejaVuSans-30" transform="translate(63.623047 0)"/>
       <use xlink:href="#DejaVuSans-30" transform="translate(127.246094 0)"/>
       <use xlink:href="#DejaVuSans-25" transform="translate(190.869141 0)"/>
      </g>
     </g>
    </g>
    <g id="text_28">
     <!-- Share of startups (sorted by revenue, descending) -->
     <g style="fill: #0f172a" transform="translate(639.713125 417.200391) scale(0.105 -0.105)">
      <defs>
       <path id="DejaVuSans-68" d="M 3513 2113 
L 3513 0 
L 2938 0 
L 2938 2094 
Q 2938 2591 2744 2837 
Q 2550 3084 2163 3084 
Q 1697 3084 1428 2787 
Q 1159 2491 1159 1978 
L 1159 0 
L 581 0 
L 581 4863 
L 1159 4863 
L 1159 2956 
Q 1366 3272 1645 3428 
Q 1925 3584 2291 3584 
Q 2894 3584 3203 3211 
Q 3513 2838 3513 2113 
z
" transform="scale(0.015625)"/>
       <path id="DejaVuSans-66" d="M 2375 4863 
L 2375 4384 
L 1825 4384 
Q 1516 4384 1395 4259 
Q 1275 4134 1275 3809 
L 1275 3500 
L 2222 3500 
L 2222 3053 
L 1275 3053 
L 1275 0 
L 697 0 
L 697 3053 
L 147 3053 
L 147 3500 
L 697 3500 
L 697 3744 
Q 697 4328 969 4595 
Q 1241 4863 1831 4863 
L 2375 4863 
z
" transform="scale(0.015625)"/>
       <path id="DejaVuSans-28" d="M 1984 4856 
Q 1566 4138 1362 3434 
Q 1159 2731 1159 2009 
Q 1159 1288 1364 580 
Q 1569 -128 1984 -844 
L 1484 -844 
Q 1016 -109 783 600 
Q 550 1309 550 2009 
Q 550 2706 781 3412 
Q 1013 4119 1484 4856 
L 1984 4856 
z
" transform="scale(0.015625)"/>
       <path id="DejaVuSans-64" d="M 2906 2969 
L 2906 4863 
L 3481 4863 
L 3481 0 
L 2906 0 
L 2906 525 
Q 2725 213 2448 61 
Q 2172 -91 1784 -91 
Q 1150 -91 751 415 
Q 353 922 353 1747 
Q 353 2572 751 3078 
Q 1150 3584 1784 3584 
Q 2172 3584 2448 3432 
Q 2725 3281 2906 2969 
z
M 947 1747 
Q 947 1113 1208 752 
Q 1469 391 1925 391 
Q 2381 391 2643 752 
Q 2906 1113 2906 1747 
Q 2906 2381 2643 2742 
Q 2381 3103 1925 3103 
Q 1469 3103 1208 2742 
Q 947 2381 947 1747 
z
" transform="scale(0.015625)"/>
       <path id="DejaVuSans-62" d="M 3116 1747 
Q 3116 2381 2855 2742 
Q 2594 3103 2138 3103 
Q 1681 3103 1420 2742 
Q 1159 2381 1159 1747 
Q 1159 1113 1420 752 
Q 1681 391 2138 391 
Q 2594 391 2855 752 
Q 3116 1113 3116 1747 
z
M 1159 2969 
Q 1341 3281 1617 3432 
Q 1894 3584 2278 3584 
Q 2916 3584 3314 3078 
Q 3713 2572 3713 1747 
Q 3713 922 3314 415 
Q 2916 -91 2278 -91 
Q 1894 -91 1617 61 
Q 1341 213 1159 525 
L 1159 0 
L 581 0 
L 581 4863 
L 1159 4863 
L 1159 2969 
z
" transform="scale(0.015625)"/>
       <path id="DejaVuSans-79" d="M 2059 -325 
Q 1816 -950 1584 -1140 
Q 1353 -1331 966 -1331 
L 506 -1331 
L 506 -850 
L 844 -850 
Q 1081 -850 1212 -737 
Q 1344 -625 1503 -206 
L 1606 56 
L 191 3500 
L 800 3500 
L 1894 763 
L 2988 3500 
L 3597 3500 
L 2059 -325 
z
" transform="scale(0.015625)"/>
       <path id="DejaVuSans-2c" d="M 750 794 
L 1409 794 
L 1409 256 
L 897 -744 
L 494 -744 
L 750 256 
L 750 794 
z
" transform="scale(0.015625)"/>
       <path id="DejaVuSans-69" d="M 603 3500 
L 1178 3500 
L 1178 0 
L 603 0 
L 603 3500 
z
M 603 4863 
L 1178 4863 
L 1178 4134 
L 603 4134 
L 603 4863 
z
" transform="scale(0.015625)"/>
       <path id="DejaVuSans-67" d="M 2906 1791 
Q 2906 2416 2648 2759 
Q 2391 3103 1925 3103 
Q 1463 3103 1205 2759 
Q 947 2416 947 1791 
Q 947 1169 1205 825 
Q 1463 481 1925 481 
Q 2391 481 2648 825 
Q 2906 1169 2906 1791 
z
M 3481 434 
Q 3481 -459 3084 -895 
Q 2688 -1331 1869 -1331 
Q 1566 -1331 1297 -1286 
Q 1028 -1241 775 -1147 
L 775 -588 
Q 1028 -725 1275 -790 
Q 1522 -856 1778 -856 
Q 2344 -856 2625 -561 
Q 2906 -266 2906 331 
L 2906 616 
Q 2728 306 2450 153 
Q 2172 0 1784 0 
Q 1141 0 747 490 
Q 353 981 353 1791 
Q 353 2603 747 3093 
Q 1141 3584 1784 3584 
Q 2172 3584 2450 3431 
Q 2728 3278 2906 2969 
L 2906 3500 
L 3481 3500 
L 3481 434 
z
" transform="scale(0.015625)"/>
       <path id="DejaVuSans-29" d="M 513 4856 
L 1013 4856 
Q 1481 4119 1714 3412 
Q 1947 2706 1947 2009 
Q 1947 1309 1714 600 
Q 1481 -109 1013 -844 
L 513 -844 
Q 928 -128 1133 580 
Q 1338 1288 1338 2009 
Q 1338 2731 1133 3434 
Q 928 4138 513 4856 
z
" transform="scale(0.015625)"/>
      </defs>
      <use xlink:href="#DejaVuSans-53"/>
      <use xlink:href="#DejaVuSans-68" transform="translate(63.476562 0)"/>
      <use xlink:href="#DejaVuSans-61" transform="translate(126.855469 0)"/>
      <use xlink:href="#DejaVuSans-72" transform="translate(188.134766 0)"/>
      <use xlink:href="#DejaVuSans-65" transform="translate(226.998047 0)"/>
      <use xlink:href="#DejaVuSans-20" transform="translate(288.521484 0)"/>
      <use xlink:href="#DejaVuSans-6f" transform="translate(320.308594 0)"/>
      <use xlink:href="#DejaVuSans-66" transform="translate(381.490234 0)"/>
      <use xlink:href="#DejaVuSans-20" transform="translate(416.695312 0)"/>
      <use xlink:href="#DejaVuSans-73" transform="translate(448.482422 0)"/>
      <use xlink:href="#DejaVuSans-74" transform="translate(500.582031 0)"/>
      <use xlink:href="#DejaVuSans-61" transform="translate(539.791016 0)"/>
      <use xlink:href="#DejaVuSans-72" transform="translate(601.070312 0)"/>
      <use xlink:href="#DejaVuSans-74" transform="translate(642.183594 0)"/>
      <use xlink:href="#DejaVuSans-75" transform="translate(681.392578 0)"/>
      <use xlink:href="#DejaVuSans-70" transform="translate(744.771484 0)"/>
      <use xlink:href="#DejaVuSans-73" transform="translate(808.248047 0)"/>
      <use xlink:href="#DejaVuSans-20" transform="translate(860.347656 0)"/>
      <use xlink:href="#DejaVuSans-28" transform="translate(892.134766 0)"/>
      <use xlink:href="#DejaVuSans-73" transform="translate(931.148438 0)"/>
      <use xlink:href="#DejaVuSans-6f" transform="translate(983.248047 0)"/>
      <use xlink:href="#DejaVuSans-72" transform="translate(1044.429688 0)"/>
      <use xlink:href="#DejaVuSans-74" transform="translate(1085.542969 0)"/>
      <use xlink:href="#DejaVuSans-65" transform="translate(1124.751953 0)"/>
      <use xlink:href="#DejaVuSans-64" transform="translate(1186.275391 0)"/>
      <use xlink:href="#DejaVuSans-20" transform="translate(1249.751953 0)"/>
      <use xlink:href="#DejaVuSans-62" transform="translate(1281.539062 0)"/>
      <use xlink:href="#DejaVuSans-79" transform="translate(1345.015625 0)"/>
      <use xlink:href="#DejaVuSans-20" transform="translate(1404.195312 0)"/>
      <use xlink:href="#DejaVuSans-72" transform="translate(1435.982422 0)"/>
      <use xlink:href="#DejaVuSans-65" transform="translate(1474.845703 0)"/>
      <use xlink:href="#DejaVuSans-76" transform="translate(1536.369141 0)"/>
      <use xlink:href="#DejaVuSans-65" transform="translate(1595.548828 0)"/>
      <use xlink:href="#DejaVuSans-6e" transform="translate(1657.072266 0)"/>
      <use xlink:href="#DejaVuSans-75" transform="translate(1720.451172 0)"/>
      <use xlink:href="#DejaVuSans-65" transform="translate(1783.830078 0)"/>
      <use xlink:href="#DejaVuSans-2c" transform="translate(1845.353516 0)"/>
      <use xlink:href="#DejaVuSans-20" transform="translate(1877.140625 0)"/>
      <use xlink:href="#DejaVuSans-64" transform="translate(1908.927734 0)"/>
      <use xlink:href="#DejaVuSans-65" transform="translate(1972.404297 0)"/>
      <use xlink:href="#DejaVuSans-73" transform="translate(2033.927734 0)"/>
      <use xlink:href="#DejaVuSans-63" transform="translate(2086.027344 0)"/>
      <use xlink:href="#DejaVuSans-65" transform="translate(2141.007812 0)"/>
      <use xlink:href="#DejaVuSans-6e" transform="translate(2202.53125 0)"/>
      <use xlink:href="#DejaVuSans-64" transform="translate(2265.910156 0)"/>
      <use xlink:href="#DejaVuSans-69" transform="translate(2329.386719 0)"/>
      <use xlink:href="#DejaVuSans-6e" transform="translate(2357.169922 0)"/>
      <use xlink:href="#DejaVuSans-67" transform="translate(2420.548828 0)"/>
      <use xlink:href="#DejaVuSans-29" transform="translate(2484.025391 0)"/>
     </g>
    </g>
   </g>
   <g id="matplotlib.axis_4">
    <g id="ytick_8">
     <g id="line2d_39">
      <path d="M 551.683906 388.06 
L 992.663906 388.06 
" clip-path="url(#p381093f6eb)" style="fill: none; stroke: #e2e8f0; stroke-width: 0.8; stroke-linecap: square"/>
     </g>
     <g id="line2d_40">
      <g>
       <use xlink:href="#md8d1fdb13c" x="551.683906" y="388.06" style="fill: #0f172a; stroke: #0f172a; stroke-width: 0.8"/>
      </g>
     </g>
     <g id="text_29">
      <!-- 0% -->
      <g style="fill: #0f172a" transform="translate(528.026641 392.04918) scale(0.105 -0.105)">
       <use xlink:href="#DejaVuSans-30"/>
       <use xlink:href="#DejaVuSans-25" transform="translate(63.623047 0)"/>
      </g>
     </g>
    </g>
    <g id="ytick_9">
     <g id="line2d_41">
      <path d="M 551.683906 329.34381 
L 992.663906 329.34381 
" clip-path="url(#p381093f6eb)" style="fill: none; stroke: #e2e8f0; stroke-width: 0.8; stroke-linecap: square"/>
     </g>
     <g id="line2d_42">
      <g>
       <use xlink:href="#md8d1fdb13c" x="551.683906" y="329.34381" style="fill: #0f172a; stroke: #0f172a; stroke-width: 0.8"/>
      </g>
     </g>
     <g id="text_30">
      <!-- 20% -->
      <g style="fill: #0f172a" transform="translate(521.346016 333.332989) scale(0.105 -0.105)">
       <use xlink:href="#DejaVuSans-32"/>
       <use xlink:href="#DejaVuSans-30" transform="translate(63.623047 0)"/>
       <use xlink:href="#DejaVuSans-25" transform="translate(127.246094 0)"/>
      </g>
     </g>
    </g>
    <g id="ytick_10">
     <g id="line2d_43">
      <path d="M 551.683906 270.627619 
L 992.663906 270.627619 
" clip-path="url(#p381093f6eb)" style="fill: none; stroke: #e2e8f0; stroke-width: 0.8; stroke-linecap: square"/>
     </g>
     <g id="line2d_44">
      <g>
       <use xlink:href="#md8d1fdb13c" x="551.683906" y="270.627619" style="fill: #0f172a; stroke: #0f172a; stroke-width: 0.8"/>
      </g>
     </g>
     <g id="text_31">
      <!-- 40% -->
      <g style="fill: #0f172a" transform="translate(521.346016 274.616799) scale(0.105 -0.105)">
       <use xlink:href="#DejaVuSans-34"/>
       <use xlink:href="#DejaVuSans-30" transform="translate(63.623047 0)"/>
       <use xlink:href="#DejaVuSans-25" transform="translate(127.246094 0)"/>
      </g>
     </g>
    </g>
    <g id="ytick_11">
     <g id="line2d_45">
      <path d="M 551.683906 211.911429 
L 992.663906 211.911429 
" clip-path="url(#p381093f6eb)" style="fill: none; stroke: #e2e8f0; stroke-width: 0.8; stroke-linecap: square"/>
     </g>
     <g id="line2d_46">
      <g>
       <use xlink:href="#md8d1fdb13c" x="551.683906" y="211.911429" style="fill: #0f172a; stroke: #0f172a; stroke-width: 0.8"/>
      </g>
     </g>
     <g id="text_32">
      <!-- 60% -->
      <g style="fill: #0f172a" transform="translate(521.346016 215.900608) scale(0.105 -0.105)">
       <use xlink:href="#DejaVuSans-36"/>
       <use xlink:href="#DejaVuSans-30" transform="translate(63.623047 0)"/>
       <use xlink:href="#DejaVuSans-25" transform="translate(127.246094 0)"/>
      </g>
     </g>
    </g>
    <g id="ytick_12">
     <g id="line2d_47">
      <path d="M 551.683906 153.195238 
L 992.663906 153.195238 
" clip-path="url(#p381093f6eb)" style="fill: none; stroke: #e2e8f0; stroke-width: 0.8; stroke-linecap: square"/>
     </g>
     <g id="line2d_48">
      <g>
       <use xlink:href="#md8d1fdb13c" x="551.683906" y="153.195238" style="fill: #0f172a; stroke: #0f172a; stroke-width: 0.8"/>
      </g>
     </g>
     <g id="text_33">
      <!-- 80% -->
      <g style="fill: #0f172a" transform="translate(521.346016 157.184418) scale(0.105 -0.105)">
       <use xlink:href="#DejaVuSans-38"/>
       <use xlink:href="#DejaVuSans-30" transform="translate(63.623047 0)"/>
       <use xlink:href="#DejaVuSans-25" transform="translate(127.246094 0)"/>
      </g>
     </g>
    </g>
    <g id="ytick_13">
     <g id="line2d_49">
      <path d="M 551.683906 94.479048 
L 992.663906 94.479048 
" clip-path="url(#p381093f6eb)" style="fill: none; stroke: #e2e8f0; stroke-width: 0.8; stroke-linecap: square"/>
     </g>
     <g id="line2d_50">
      <g>
       <use xlink:href="#md8d1fdb13c" x="551.683906" y="94.479048" style="fill: #0f172a; stroke: #0f172a; stroke-width: 0.8"/>
      </g>
     </g>
     <g id="text_34">
      <!-- 100% -->
      <g style="fill: #0f172a" transform="translate(514.665391 98.468227) scale(0.105 -0.105)">
       <use xlink:href="#DejaVuSans-31"/>
       <use xlink:href="#DejaVuSans-30" transform="translate(63.623047 0)"/>
       <use xlink:href="#DejaVuSans-30" transform="translate(127.246094 0)"/>
       <use xlink:href="#DejaVuSans-25" transform="translate(190.869141 0)"/>
      </g>
     </g>
    </g>
    <g id="text_35">
     <!-- Cumulative share of revenue -->
     <g style="fill: #0f172a" transform="translate(508.481719 310.00332) rotate(-90) scale(0.105 -0.105)">
      <defs>
       <path id="DejaVuSans-43" d="M 4122 4306 
L 4122 3641 
Q 3803 3938 3442 4084 
Q 3081 4231 2675 4231 
Q 1875 4231 1450 3742 
Q 1025 3253 1025 2328 
Q 1025 1406 1450 917 
Q 1875 428 2675 428 
Q 3081 428 3442 575 
Q 3803 722 4122 1019 
L 4122 359 
Q 3791 134 3420 21 
Q 3050 -91 2638 -91 
Q 1578 -91 968 557 
Q 359 1206 359 2328 
Q 359 3453 968 4101 
Q 1578 4750 2638 4750 
Q 3056 4750 3426 4639 
Q 3797 4528 4122 4306 
z
" transform="scale(0.015625)"/>
       <path id="DejaVuSans-6d" d="M 3328 2828 
Q 3544 3216 3844 3400 
Q 4144 3584 4550 3584 
Q 5097 3584 5394 3201 
Q 5691 2819 5691 2113 
L 5691 0 
L 5113 0 
L 5113 2094 
Q 5113 2597 4934 2840 
Q 4756 3084 4391 3084 
Q 3944 3084 3684 2787 
Q 3425 2491 3425 1978 
L 3425 0 
L 2847 0 
L 2847 2094 
Q 2847 2600 2669 2842 
Q 2491 3084 2119 3084 
Q 1678 3084 1418 2786 
Q 1159 2488 1159 1978 
L 1159 0 
L 581 0 
L 581 3500 
L 1159 3500 
L 1159 2956 
Q 1356 3278 1631 3431 
Q 1906 3584 2284 3584 
Q 2666 3584 2933 3390 
Q 3200 3197 3328 2828 
z
" transform="scale(0.015625)"/>
       <path id="DejaVuSans-6c" d="M 603 4863 
L 1178 4863 
L 1178 0 
L 603 0 
L 603 4863 
z
" transform="scale(0.015625)"/>
      </defs>
      <use xlink:href="#DejaVuSans-43"/>
      <use xlink:href="#DejaVuSans-75" transform="translate(69.824219 0)"/>
      <use xlink:href="#DejaVuSans-6d" transform="translate(133.203125 0)"/>
      <use xlink:href="#DejaVuSans-75" transform="translate(230.615234 0)"/>
      <use xlink:href="#DejaVuSans-6c" transform="translate(293.994141 0)"/>
      <use xlink:href="#DejaVuSans-61" transform="translate(321.777344 0)"/>
      <use xlink:href="#DejaVuSans-74" transform="translate(383.056641 0)"/>
      <use xlink:href="#DejaVuSans-69" transform="translate(422.265625 0)"/>
      <use xlink:href="#DejaVuSans-76" transform="translate(450.048828 0)"/>
      <use xlink:href="#DejaVuSans-65" transform="translate(509.228516 0)"/>
      <use xlink:href="#DejaVuSans-20" transform="translate(570.751953 0)"/>
      <use xlink:href="#DejaVuSans-73" transform="translate(602.539062 0)"/>
      <use xlink:href="#DejaVuSans-68" transform="translate(654.638672 0)"/>
      <use xlink:href="#DejaVuSans-61" transform="translate(718.017578 0)"/>
      <use xlink:href="#DejaVuSans-72" transform="translate(779.296875 0)"/>
      <use xlink:href="#DejaVuSans-65" transform="translate(818.160156 0)"/>
      <use xlink:href="#DejaVuSans-20" transform="translate(879.683594 0)"/>
      <use xlink:href="#DejaVuSans-6f" transform="translate(911.470703 0)"/>
      <use xlink:href="#DejaVuSans-66" transform="translate(972.652344 0)"/>
      <use xlink:href="#DejaVuSans-20" transform="translate(1007.857422 0)"/>
      <use xlink:href="#DejaVuSans-72" transform="translate(1039.644531 0)"/>
      <use xlink:href="#DejaVuSans-65" transform="translate(1078.507812 0)"/>
      <use xlink:href="#DejaVuSans-76" transform="translate(1140.03125 0)"/>
      <use xlink:href="#DejaVuSans-65" transform="translate(1199.210938 0)"/>
      <use xlink:href="#DejaVuSans-6e" transform="translate(1260.734375 0)"/>
      <use xlink:href="#DejaVuSans-75" transform="translate(1324.113281 0)"/>
      <use xlink:href="#DejaVuSans-65" transform="translate(1387.492188 0)"/>
     </g>
    </g>
   </g>
   <g id="line2d_51">
    <path d="M 571.728452 302.264962 
L 573.486745 264.805157 
L 575.245039 232.178875 
L 577.003332 218.886686 
L 578.761626 206.887464 
L 580.519919 198.320045 
L 582.278212 192.616487 
L 584.036506 188.02464 
L 591.06968 174.974127 
L 594.586267 169.669335 
L 598.102854 164.932483 
L 599.861147 162.817816 
L 603.377734 159.228925 
L 605.136027 157.790952 
L 610.410908 154.347067 
L 617.444082 150.129818 
L 622.718962 147.133033 
L 629.752136 143.580394 
L 635.027016 141.175716 
L 638.543603 139.689407 
L 650.851657 135.121728 
L 656.126538 133.393743 
L 666.676299 130.167367 
L 677.226059 127.218917 
L 691.292407 123.64211 
L 700.083874 121.551611 
L 717.666809 117.793547 
L 726.458276 116.077646 
L 738.76633 113.975064 
L 752.832678 111.763727 
L 766.899026 109.745731 
L 780.965374 107.921076 
L 798.548308 105.854745 
L 812.614656 104.404688 
L 833.714177 102.471278 
L 863.605166 100.102852 
L 895.254449 98.032896 
L 919.870557 96.67105 
L 942.728372 95.6113 
L 967.34448 94.662722 
L 972.619361 94.479048 
L 972.619361 94.479048 
" clip-path="url(#p381093f6eb)" style="fill: none; stroke: #2563eb; stroke-width: 2.6; stroke-linecap: square"/>
   </g>
   <g id="patch_12">
    <path d="M 551.683906 388.06 
L 551.683906 79.8 
" style="fill: none; stroke: #cbd5e1; stroke-width: 0.8; stroke-linejoin: miter; stroke-linecap: square"/>
   </g>
   <g id="patch_13">
    <path d="M 551.683906 388.06 
L 992.663906 388.06 
" style="fill: none; stroke: #cbd5e1; stroke-width: 0.8; stroke-linejoin: miter; stroke-linecap: square"/>
   </g>
   <g id="PathCollection_1">
    <defs>
     <path id="m1197d3e955" d="M 0 3.354102 
C 0.889518 3.354102 1.742724 3.000693 2.371708 2.371708 
C 3.000693 1.742724 3.354102 0.889518 3.354102 0 
C 3.354102 -0.889518 3.000693 -1.742724 2.371708 -2.371708 
C 1.742724 -3.000693 0.889518 -3.354102 0 -3.354102 
C -0.889518 -3.354102 -1.742724 -3.000693 -2.371708 -2.371708 
C -3.000693 -1.742724 -3.354102 -0.889518 -3.354102 0 
C -3.354102 0.889518 -3.000693 1.742724 -2.371708 2.371708 
C -1.742724 3.000693 -0.889518 3.354102 0 3.354102 
z
" style="stroke: #f59e0b"/>
    </defs>
    <g clip-path="url(#p381093f6eb)">
     <use xlink:href="#m1197d3e955" x="587.553093" y="181.414797" style="fill: #f59e0b; stroke: #f59e0b"/>
    </g>
   </g>
   <g id="text_36">
    <!-- Top 10 startups = 70.4% of visible revenue -->
    <g style="fill: #0f172a" transform="translate(599.632569 196.093845) scale(0.095 -0.095)">
     <defs>
      <path id="DejaVuSans-54" d="M -19 4666 
L 3928 4666 
L 3928 4134 
L 2272 4134 
L 2272 0 
L 1638 0 
L 1638 4134 
L -19 4134 
L -19 4666 
z
" transform="scale(0.015625)"/>
      <path id="DejaVuSans-3d" d="M 678 2906 
L 4684 2906 
L 4684 2381 
L 678 2381 
L 678 2906 
z
M 678 1631 
L 4684 1631 
L 4684 1100 
L 678 1100 
L 678 1631 
z
" transform="scale(0.015625)"/>
     </defs>
     <use xlink:href="#DejaVuSans-54"/>
     <use xlink:href="#DejaVuSans-6f" transform="translate(44.083984 0)"/>
     <use xlink:href="#DejaVuSans-70" transform="translate(105.265625 0)"/>
     <use xlink:href="#DejaVuSans-20" transform="translate(168.742188 0)"/>
     <use xlink:href="#DejaVuSans-31" transform="translate(200.529297 0)"/>
     <use xlink:href="#DejaVuSans-30" transform="translate(264.152344 0)"/>
     <use xlink:href="#DejaVuSans-20" transform="translate(327.775391 0)"/>
     <use xlink:href="#DejaVuSans-73" transform="translate(359.5625 0)"/>
     <use xlink:href="#DejaVuSans-74" transform="translate(411.662109 0)"/>
     <use xlink:href="#DejaVuSans-61" transform="translate(450.871094 0)"/>
     <use xlink:href="#DejaVuSans-72" transform="translate(512.150391 0)"/>
     <use xlink:href="#DejaVuSans-74" transform="translate(553.263672 0)"/>
     <use xlink:href="#DejaVuSans-75" transform="translate(592.472656 0)"/>
     <use xlink:href="#DejaVuSans-70" transform="translate(655.851562 0)"/>
     <use xlink:href="#DejaVuSans-73" transform="translate(719.328125 0)"/>
     <use xlink:href="#DejaVuSans-20" transform="translate(771.427734 0)"/>
     <use xlink:href="#DejaVuSans-3d" transform="translate(803.214844 0)"/>
     <use xlink:href="#DejaVuSans-20" transform="translate(887.003906 0)"/>
     <use xlink:href="#DejaVuSans-37" transform="translate(918.791016 0)"/>
     <use xlink:href="#DejaVuSans-30" transform="translate(982.414062 0)"/>
     <use xlink:href="#DejaVuSans-2e" transform="translate(1046.037109 0)"/>
     <use xlink:href="#DejaVuSans-34" transform="translate(1077.824219 0)"/>
     <use xlink:href="#DejaVuSans-25" transform="translate(1141.447266 0)"/>
     <use xlink:href="#DejaVuSans-20" transform="translate(1236.466797 0)"/>
     <use xlink:href="#DejaVuSans-6f" transform="translate(1268.253906 0)"/>
     <use xlink:href="#DejaVuSans-66" transform="translate(1329.435547 0)"/>
     <use xlink:href="#DejaVuSans-20" transform="translate(1364.640625 0)"/>
     <use xlink:href="#DejaVuSans-76" transform="translate(1396.427734 0)"/>
     <use xlink:href="#DejaVuSans-69" transform="translate(1455.607422 0)"/>
     <use xlink:href="#DejaVuSans-73" transform="translate(1483.390625 0)"/>
     <use xlink:href="#DejaVuSans-69" transform="translate(1535.490234 0)"/>
     <use xlink:href="#DejaVuSans-62" transform="translate(1563.273438 0)"/>
     <use xlink:href="#DejaVuSans-6c" transform="translate(1626.75 0)"/>
     <use xlink:href="#DejaVuSans-65" transform="translate(1654.533203 0)"/>
     <use xlink:href="#DejaVuSans-20" transform="translate(1716.056641 0)"/>
     <use xlink:href="#DejaVuSans-72" transform="translate(1747.84375 0)"/>
     <use xlink:href="#DejaVuSans-65" transform="translate(1786.707031 0)"/>
     <use xlink:href="#DejaVuSans-76" transform="translate(1848.230469 0)"/>
     <use xlink:href="#DejaVuSans-65" transform="translate(1907.410156 0)"/>
     <use xlink:href="#DejaVuSans-6e" transform="translate(1968.933594 0)"/>
     <use xlink:href="#DejaVuSans-75" transform="translate(2032.3125 0)"/>
     <use xlink:href="#DejaVuSans-65" transform="translate(2095.691406 0)"/>
    </g>
   </g>
   <g id="text_37">
    <!-- Revenue concentration curve -->
    <g transform="translate(551.683906 73.8) scale(0.13 -0.13)">
     <defs>
      <path id="DejaVuSans-Bold-63" d="M 3366 3391 
L 3366 2478 
Q 3138 2634 2908 2709 
Q 2678 2784 2431 2784 
Q 1963 2784 1702 2511 
Q 1441 2238 1441 1747 
Q 1441 1256 1702 982 
Q 1963 709 2431 709 
Q 2694 709 2930 787 
Q 3166 866 3366 1019 
L 3366 103 
Q 3103 6 2833 -42 
Q 2563 -91 2291 -91 
Q 1344 -91 809 395 
Q 275 881 275 1747 
Q 275 2613 809 3098 
Q 1344 3584 2291 3584 
Q 2566 3584 2833 3536 
Q 3100 3488 3366 3391 
z
" transform="scale(0.015625)"/>
      <path id="DejaVuSans-Bold-6f" d="M 2203 2784 
Q 1831 2784 1636 2517 
Q 1441 2250 1441 1747 
Q 1441 1244 1636 976 
Q 1831 709 2203 709 
Q 2569 709 2762 976 
Q 2956 1244 2956 1747 
Q 2956 2250 2762 2517 
Q 2569 2784 2203 2784 
z
M 2203 3584 
Q 3106 3584 3614 3096 
Q 4122 2609 4122 1747 
Q 4122 884 3614 396 
Q 3106 -91 2203 -91 
Q 1297 -91 786 396 
Q 275 884 275 1747 
Q 275 2609 786 3096 
Q 1297 3584 2203 3584 
z
" transform="scale(0.015625)"/>
      <path id="DejaVuSans-Bold-74" d="M 1759 4494 
L 1759 3500 
L 2913 3500 
L 2913 2700 
L 1759 2700 
L 1759 1216 
Q 1759 972 1856 886 
Q 1953 800 2241 800 
L 2816 800 
L 2816 0 
L 1856 0 
Q 1194 0 917 276 
Q 641 553 641 1216 
L 641 2700 
L 84 2700 
L 84 3500 
L 641 3500 
L 641 4494 
L 1759 4494 
z
" transform="scale(0.015625)"/>
      <path id="DejaVuSans-Bold-72" d="M 3138 2547 
Q 2991 2616 2845 2648 
Q 2700 2681 2553 2681 
Q 2122 2681 1889 2404 
Q 1656 2128 1656 1613 
L 1656 0 
L 538 0 
L 538 3500 
L 1656 3500 
L 1656 2925 
Q 1872 3269 2151 3426 
Q 2431 3584 2822 3584 
Q 2878 3584 2943 3579 
Q 3009 3575 3134 3559 
L 3138 2547 
z
" transform="scale(0.015625)"/>
      <path id="DejaVuSans-Bold-69" d="M 538 3500 
L 1656 3500 
L 1656 0 
L 538 0 
L 538 3500 
z
M 538 4863 
L 1656 4863 
L 1656 3950 
L 538 3950 
L 538 4863 
z
" transform="scale(0.015625)"/>
     </defs>
     <use xlink:href="#DejaVuSans-Bold-52"/>
     <use xlink:href="#DejaVuSans-Bold-65" transform="translate(77.001953 0)"/>
     <use xlink:href="#DejaVuSans-Bold-76" transform="translate(144.824219 0)"/>
     <use xlink:href="#DejaVuSans-Bold-65" transform="translate(210.009766 0)"/>
     <use xlink:href="#DejaVuSans-Bold-6e" transform="translate(277.832031 0)"/>
     <use xlink:href="#DejaVuSans-Bold-75" transform="translate(349.023438 0)"/>
     <use xlink:href="#DejaVuSans-Bold-65" transform="translate(420.214844 0)"/>
     <use xlink:href="#DejaVuSans-Bold-20" transform="translate(488.037109 0)"/>
     <use xlink:href="#DejaVuSans-Bold-63" transform="translate(522.851562 0)"/>
     <use xlink:href="#DejaVuSans-Bold-6f" transform="translate(582.128906 0)"/>
     <use xlink:href="#DejaVuSans-Bold-6e" transform="translate(650.830078 0)"/>
     <use xlink:href="#DejaVuSans-Bold-63" transform="translate(722.021484 0)"/>
     <use xlink:href="#DejaVuSans-Bold-65" transform="translate(781.298828 0)"/>
     <use xlink:href="#DejaVuSans-Bold-6e" transform="translate(849.121094 0)"/>
     <use xlink:href="#DejaVuSans-Bold-74" transform="translate(920.3125 0)"/>
     <use xlink:href="#DejaVuSans-Bold-72" transform="translate(968.115234 0)"/>
     <use xlink:href="#DejaVuSans-Bold-61" transform="translate(1017.431641 0)"/>
     <use xlink:href="#DejaVuSans-Bold-74" transform="translate(1084.912109 0)"/>
     <use xlink:href="#DejaVuSans-Bold-69" transform="translate(1132.714844 0)"/>
     <use xlink:href="#DejaVuSans-Bold-6f" transform="translate(1166.992188 0)"/>
     <use xlink:href="#DejaVuSans-Bold-6e" transform="translate(1235.693359 0)"/>
     <use xlink:href="#DejaVuSans-Bold-20" transform="translate(1306.884766 0)"/>
     <use xlink:href="#DejaVuSans-Bold-63" transform="translate(1341.699219 0)"/>
     <use xlink:href="#DejaVuSans-Bold-75" transform="translate(1400.976562 0)"/>
     <use xlink:href="#DejaVuSans-Bold-72" transform="translate(1472.167969 0)"/>
     <use xlink:href="#DejaVuSans-Bold-76" transform="translate(1521.484375 0)"/>
     <use xlink:href="#DejaVuSans-Bold-65" transform="translate(1586.669922 0)"/>
    </g>
   </g>
  </g>
  <g id="text_38">
   <!-- Distribution and concentration -->
   <g transform="translate(46.403906 19.3575) scale(0.16 -0.16)">
    <defs>
     <path id="DejaVuSans-Bold-44" d="M 1791 3756 
L 1791 909 
L 2222 909 
Q 2959 909 3348 1275 
Q 3738 1641 3738 2338 
Q 3738 3031 3350 3393 
Q 2963 3756 2222 3756 
L 1791 3756 
z
M 588 4666 
L 1856 4666 
Q 2919 4666 3439 4514 
Q 3959 4363 4331 4000 
Q 4659 3684 4818 3271 
Q 4978 2859 4978 2338 
Q 4978 1809 4818 1395 
Q 4659 981 4331 666 
Q 3956 303 3431 151 
Q 2906 0 1856 0 
L 588 0 
L 588 4666 
z
" transform="scale(0.015625)"/>
    </defs>
    <use xlink:href="#DejaVuSans-Bold-44"/>
    <use xlink:href="#DejaVuSans-Bold-69" transform="translate(83.007812 0)"/>
    <use xlink:href="#DejaVuSans-Bold-73" transform="translate(117.285156 0)"/>
    <use xlink:href="#DejaVuSans-Bold-74" transform="translate(176.806641 0)"/>
    <use xlink:href="#DejaVuSans-Bold-72" transform="translate(224.609375 0)"/>
    <use xlink:href="#DejaVuSans-Bold-69" transform="translate(273.925781 0)"/>
    <use xlink:href="#DejaVuSans-Bold-62" transform="translate(308.203125 0)"/>
    <use xlink:href="#DejaVuSans-Bold-75" transform="translate(379.785156 0)"/>
    <use xlink:href="#DejaVuSans-Bold-74" transform="translate(450.976562 0)"/>
    <use xlink:href="#DejaVuSans-Bold-69" transform="translate(498.779297 0)"/>
    <use xlink:href="#DejaVuSans-Bold-6f" transform="translate(533.056641 0)"/>
    <use xlink:href="#DejaVuSans-Bold-6e" transform="translate(601.757812 0)"/>
    <use xlink:href="#DejaVuSans-Bold-20" transform="translate(672.949219 0)"/>
    <use xlink:href="#DejaVuSans-Bold-61" transform="translate(707.763672 0)"/>
    <use xlink:href="#DejaVuSans-Bold-6e" transform="translate(775.244141 0)"/>
    <use xlink:href="#DejaVuSans-Bold-64" transform="translate(846.435547 0)"/>
    <use xlink:href="#DejaVuSans-Bold-20" transform="translate(918.017578 0)"/>
    <use xlink:href="#DejaVuSans-Bold-63" transform="translate(952.832031 0)"/>
    <use xlink:href="#DejaVuSans-Bold-6f" transform="translate(1012.109375 0)"/>
    <use xlink:href="#DejaVuSans-Bold-6e" transform="translate(1080.810547 0)"/>
    <use xlink:href="#DejaVuSans-Bold-63" transform="translate(1152.001953 0)"/>
    <use xlink:href="#DejaVuSans-Bold-65" transform="translate(1211.279297 0)"/>
    <use xlink:href="#DejaVuSans-Bold-6e" transform="translate(1279.101562 0)"/>
    <use xlink:href="#DejaVuSans-Bold-74" transform="translate(1350.292969 0)"/>
    <use xlink:href="#DejaVuSans-Bold-72" transform="translate(1398.095703 0)"/>
    <use xlink:href="#DejaVuSans-Bold-61" transform="translate(1447.412109 0)"/>
    <use xlink:href="#DejaVuSans-Bold-74" transform="translate(1514.892578 0)"/>
    <use xlink:href="#DejaVuSans-Bold-69" transform="translate(1562.695312 0)"/>
    <use xlink:href="#DejaVuSans-Bold-6f" transform="translate(1596.972656 0)"/>
    <use xlink:href="#DejaVuSans-Bold-6e" transform="translate(1665.673828 0)"/>
   </g>
  </g>
 </g>
 <defs>
  <clipPath id="p126cea7a1d">
   <rect x="48.403906" y="79.8" width="440.98" height="308.26"/>
  </clipPath>
  <clipPath id="p381093f6eb">
   <rect x="551.683906" y="79.8" width="440.98" height="308.26"/>
  </clipPath>
 </defs>
</svg>
